<svg width="122" height="31" viewBox="0 0 122 31" fill="#7BD254" xmlns="http://www.w3.org/2000/svg">
<path d="M61.8955 29.9977L61.8842 28.9977L61.8955 29.9977ZM121.996 2.09357C122.047 1.5437 121.643 1.05606 121.094 1.00439L112.133 0.162293C111.583 0.110618 111.096 0.514479 111.044 1.06434C110.992 1.6142 111.396 2.10184 111.946 2.15352L119.911 2.90205L119.162 10.867C119.111 11.4168 119.514 11.9045 120.064 11.9561C120.614 12.0078 121.102 11.6039 121.154 11.0541L121.996 2.09357ZM1 2C0.367099 2.77423 0.367374 2.77446 0.36778 2.77479C0.368092 2.77504 0.368631 2.77548 0.369253 2.77599C0.370498 2.77701 0.37227 2.77845 0.374565 2.78032C0.379155 2.78407 0.38584 2.78951 0.3946 2.79662C0.412119 2.81086 0.437935 2.83179 0.471886 2.8592C0.539786 2.91403 0.640225 2.99478 0.77189 3.09971C1.03522 3.30959 1.42348 3.61623 1.92619 4.00574C2.93154 4.7847 4.39498 5.89538 6.23252 7.22642C9.90658 9.88775 15.0815 13.4339 21.0846 16.9721C33.0415 24.0195 48.4713 31.15 61.9069 30.9976L61.8842 28.9977C49.0387 29.1434 34.0208 22.2751 22.1001 15.2491C16.1645 11.7507 11.0432 8.24151 7.40578 5.6067C5.58758 4.28967 4.14144 3.19206 3.15115 2.42477C2.65604 2.04115 2.27497 1.74016 2.01842 1.53569C1.89014 1.43346 1.793 1.35535 1.72831 1.30312C1.69597 1.277 1.67173 1.25735 1.65578 1.24439C1.6478 1.23791 1.64189 1.2331 1.63807 1.22998C1.63616 1.22843 1.63477 1.2273 1.63391 1.22659C1.63348 1.22624 1.63323 1.22603 1.63301 1.22586C1.63289 1.22576 1.6329 1.22577 1 2ZM61.9069 30.9976C75.019 30.8489 89.9941 23.7205 101.582 16.7465C107.4 13.2452 112.409 9.75446 115.965 7.13924C117.743 5.83126 119.158 4.74135 120.13 3.97738C120.616 3.59538 120.992 3.2948 121.246 3.08912C121.374 2.98628 121.471 2.90715 121.536 2.85344C121.569 2.82658 121.594 2.80607 121.611 2.79212C121.62 2.78514 121.626 2.77981 121.631 2.77614C121.633 2.77431 121.635 2.77289 121.636 2.77189C121.636 2.7714 121.637 2.77096 121.637 2.77071C121.638 2.77039 121.638 2.77017 121 2C120.362 1.22983 120.362 1.22982 120.362 1.22992C120.362 1.23009 120.362 1.23029 120.361 1.23064C120.36 1.23132 120.359 1.23243 120.357 1.23395C120.353 1.23699 120.348 1.2417 120.34 1.24805C120.325 1.26073 120.301 1.27997 120.27 1.30554C120.207 1.35669 120.114 1.43318 119.99 1.53334C119.742 1.73367 119.373 2.02863 118.895 2.4048C117.937 3.15718 116.539 4.23413 114.779 5.5282C111.26 8.11707 106.303 11.5712 100.551 15.0329C88.9992 21.985 74.422 28.8555 61.8842 28.9977L61.9069 30.9976Z"/>
</svg>
