<?xml version="1.0" encoding="UTF-8"?>
<svg id="Layer_2" data-name="Layer 2" xmlns="http://www.w3.org/2000/svg" viewBox="0 0 685.9 171.83">
  <defs>
    <style>
      .cls-1 {
        fill: #fff;
      }
    </style>
  </defs>
  <g id="Layer_1-2" data-name="Layer 1">
    <g>
      <path d="M126.91,144.73c9.34-4.84,21.7-9.63,32.24-13.37-.06-1.01.02-2.02-.03-3.02-.02-.4.01-.81,0-1.21-.01-.27-.08-.53-.13-.8.09-.35.21-.76.1-1.07-.17-.46-.09-.92-.14-1.37-.05-.45-.11-.91-.17-1.36-.08-.51.13-1.01.03-1.52-.02-.13.13-.28.13-.42,0-.59.36-1.17.04-1.79-.09-.18-.04-.5.05-.72.11-.28.19-.55.03-.79-.22-.33.25-.58.05-.87-.23-.34-.12-.72-.13-1.09-.02-.5-.01-1,0-1.49,0-.46.05-.93.05-1.39,0-.48-.05-.96-.05-1.44,0-1.18.06-2.37-.02-3.55-.07-1.13.29-2.25.03-3.37-.03-.13.04-.3.07-.45.19-1.23.11-2.47.04-3.7,0-.04-.02-.08-.03-.1,0,0,0,.01,0,.02-.02-.04-.01-.04,0-.02.17-1.22.07-2.3.09-3.37.02-1.09.1-2.19-.03-3.27-.12-1.04.31-2.1-.14-3.08.06-.11.14-.19.15-.28.07-.98.15-1.96.19-2.95.03-.84,0-1.68,0-2.52,0-.4,0-.79.16-1.18.15-.36-.09-.74-.02-1.15.09-.49-.02-1.03-.05-1.54-.01-.26.1-.54.07-.79-.07-.61,0-1.25-.18-1.83-.15-.46-.11-.91-.17-1.36-.05-.36.16-.68.05-1.06-.1-.34-.04-.74-.04-1.11,0-1.12,0-2.24,0-3.36,0-.06-.03-.11-.05-.18-.15-.06-.3-.12-.43-.17v-.57c.19-.08.34-.14.46-.19v-1.16c-.27.13-.5.25-.79.39-.48-.3-.98-.6-1.45-.89v-.54c.7-.48,1.45-.62,2.28-.4,0-.7.05-1.36-.01-2.01-.06-.67.05-1.33.03-1.99-.02-.52.17-1.06.07-1.55-.08-.38.14-.71.03-1.03-.12-.32-.09-.57,0-.88.07-.22-.04-.49-.06-.74-.05-.95-.17-1.91.12-2.84-.06-.2-.16-.41-.16-.61,0-.88.05-1.76.08-2.64,0-.24.03-.48.02-.71-.02-.47-.18-.97-.06-1.39.13-.44.12-.85.12-1.28.01-1.59,0-3.18.01-4.76,0-.36.07-.72.09-.98-.04-.33-.09-.57-.09-.81,0-.85,0-1.69,0-2.54-10.57-3.75-23-8.56-32.39-13.42C108.16,17.38,86.15,1.96,83.37,0l-.78.38c-6.52,4.44-25.37,17.01-41.72,25.3C28.94,31.72,12.15,37.65.43,41.48c0,.12.02.25,0,.38-.03.49-.03,1.03.05,1.52.12.72.13,1.39-.09,2.06.07.19.13.36.18.47-.07.3-.15.53-.16.77-.03.43-.05.88,0,1.31.05.42-.12.81-.05,1.25.07.4-.1.84-.13,1.26-.02.31-.08.65.02.93.21.58.16,1.16.15,1.74-.02.7.09,1.41-.14,2.11-.1.3-.05.72.06,1.02.15.4-.14.69-.11,1.06.07.83.02,1.68.02,2.56.15.26.31.55.47.84-.15.18-.31.36-.46.53.22.8-.07,1.65.28,2.41-.32.72.06,1.45-.03,2.17-.1.79-.14,1.58-.2,2.36.16,1.51-.31,3.05.07,4.6-.18.58-.21,2.86-.03,3.58-.1.32-.18.6-.27.89.08.29.08.58.07.87,0,.15-.1.31-.07.44.11.49.05.96,0,1.44-.05.38.08.78.1,1.18,0,.2-.05.4-.08.58.15.31.29.62.44.92-.18.75-.16,3.98,0,4.56-.05.33-.13.54-.1.74.1.64-.02,1.26-.02,1.9.01,1.03.01,2.06,0,3.08,0,.3-.07.6-.12,1,.1.33.25,2.32.08,2.74-.23.58-.2,1.18-.11,1.74.18,1.12.15,2.24.13,3.35-.01.48-.05.94.1,1.4.15.11.29.21.41.3-.11.62-.22,1.21-.31,1.81-.06.39-.16.78-.17,1.17-.03,2.42.04,4.85-.18,7.27-.06.61.08,1.23-.16,1.83-.08.21-.09.54.01.73.21.39.14.79.14,1.18.01,2.09,0,4.17,0,6.26v.8c.15.12.26.2.36.28-.13.28-.22.5-.32.71.28.74.42,1.46.01,2.2-.08.15-.07.36-.06.54.04.65.02,1.3.08,1.96,5.69,1.86,12.59,4.22,19.56,6.85.05-.03.1-.05.16-.08.02.06.04.11.05.16,7.32,2.77,14.7,5.83,20.81,8.92,16.53,8.37,35.6,21.13,41.92,25.44l.55.26c2.64-1.86,24.75-17.36,43.58-27.11ZM153.05,71.71c.33-.12.65-.24.98-.35.6-.19,1.15-.15,1.57.42.06.09.15.16.23.23.28.2.56.4.88.63-.16.33-.29.59-.41.85-.34.02-.63.03-.94.05-.06.09-.12.19-.15.23-.71.2-1.37.38-2.03.56-.29.09-.63.24-.85-.09-.37-1.02.26-1.71.72-2.54ZM150.02,118.2h1.01c-.25.47-.47.87-.69,1.27-.2-.09-.33-.15-.46-.2q-.13-.58.14-1.07ZM148.78,120.67h.26s0,.05,0,.07h-.26s0-.05,0-.07ZM147.24,109.03s0,.1.01.15h-.38s0-.06,0-.09c.12-.02.25-.04.37-.06ZM146.34,134.28h.91c.1.32.13.59-.16.87-.32.03-.7.19-1-.28.08-.19.17-.4.26-.6ZM144,114.46c.25-.14.52-.29.82-.45.14.17.24.31.36.42.1.1.23.17.33.24.07.34.12.64-.25.89-.38-.01-.84.15-1.26-.19v-.91ZM142.48,119.91s.03.04.04.05c-.03,0-.06,0-.1,0,.02-.02.03-.03.05-.05ZM140.88,114.24c-.01-.17-.03-.34-.04-.56.43.12.32.33.04.56ZM2.11,102.44c.13-.21.34-.37.55-.58.28.28.5.5.79.79-.21.27-.39.51-.55.72-.33-.07-.58-.12-.83-.18-.02-.04-.08-.1-.08-.14.03-.21.02-.44.12-.61ZM4.22,106.32c-.15.11-.29.21-.48.34v.98c-.73.25-1.26-.27-1.86-.34-.08-.16-.15-.29-.25-.49.44-.28.93-.49,1.31-.85.36-.34.59-.84.86-1.23.73,0,.58.56.77.86-.12.25-.24.5-.35.73ZM11.78,55.38c-.21-.02-.42-.03-.74-.05.15-.36.26-.61.43-1.01.22.4.46.62.31,1.06ZM14.22,51.59c-.17-.12-.35-.26-.59-.43-.07-.32-.15-.69-.23-1.04q.74-.41,1.78-.04c-.05.69-.23,1.29-.96,1.52ZM15.27,61.52c-.09-.27-.17-.52-.29-.9.3.21.51.35.71.49.06.33-.03.49-.43.41ZM17.27,134.38c-.11.03-.19.05-.32.09-.35-.41-.88-.73-.63-1.56.36.19.64.34.94.5v.98ZM18,102.72q-.65.39-1.2.07c-.05-1.28,0-1.35.88-1.6.47.43.32,1,.32,1.53ZM18.86,69.62c.07-.1.08-.13.11-.14.13-.07.25-.14.39-.21.37.79.53,1.64.7,2.5-.41-.74-.96-1.38-1.2-2.15ZM109.47,151.84c.43.23.31.55.29.9-.43-.22-.31-.55-.29-.9ZM104.41,145.12l.09.07c-.06.09-.12.19-.19.28-.04-.03-.08-.06-.12-.09.07-.09.14-.18.21-.26ZM78.34,152.37c-.34.3-.63.17-.9.18-.02-.12-.02-.18-.04-.28.29-.08.57-.15.94.1ZM77.18,154.33c-.65.43-1.38.29-2.13.31-.13-.13-.28-.27-.46-.43.08-.17.13-.4.25-.46.74-.38,1.5-.72,2.34,0v.59ZM77.42,155.57c-.02-.29-.03-.56-.05-.9.34-.02.65-.04.96-.05.11.21.2.39.31.61-.29.21-.5.37-.75.54-.14-.06-.29-.12-.48-.2ZM79.19,157.6h-.67c-.03-.1-.1-.19-.08-.26.13-.44.13-.44.87-.42-.04.22-.07.43-.12.69ZM79.15,154.63c.23-.63.74-.26,1.22-.48-.05.35-.07.56-.11.86-.5-.04-.91.16-1.11-.38Z"/>
      <path class="cls-1" d="M84.62,126.3c-.18-.85-.26-1.72-.41-2.57,0-.72-.19-1.42-.22-2.14,0-.09-.01-.18-.03-.27-.14-.7-.2-1.42-.32-2.13-.1-.53-.13-1.07-.23-1.6-.06-.3-.08-.59-.11-.89-.07-.78-.15-1.55-.22-2.32,0-.06-.02-.12-.03-.18-.04-.33-.08-.65-.12-.98-.02-.21-.02-.42-.06-.63-.07-.33-.09-.65-.11-.98-.01-.18,0-.36-.05-.54-.1-.47-.11-.95-.13-1.43-.01-.21,0-.42-.04-.63-.11-.59-.12-1.19-.14-1.79,0-.21,0-.42-.04-.63-.13-.71-.13-1.43-.16-2.15,0-.21,0-.42-.04-.63-.07-.36-.08-.72-.08-1.07-.02-1.41-.17-2.81-.24-4.22,0-.06,0-.12-.01-.18-.11-.56-.11-1.13-.13-1.7-.02-.54-.01-1.08-.09-1.61-.06-.45-.08-.89-.1-1.34-.04-.9,0-1.8-.13-2.69-.01-.09,0-.18,0-.27,0-.39,0-.78-.03-1.17-.05-.87.02-1.74-.17-2.59,0-.03,0-.06,0-.09-.02-1.23-.06-2.46-.07-3.69,0-1.59.04-3.18.04-4.77,0-2.37-.02-4.74-.03-7.1,0-2.07-.01-4.14.06-6.2,0-.21,0-.42.04-.63.08-.39.07-.77.08-1.16.01-.54.04-1.08.04-1.62,0-1.23.2-2.45.21-3.68,0-.06,0-.12.02-.18.11-.44.11-.89.13-1.34.03-.75.01-1.5.13-2.24.03-.21.02-.42.03-.63.02-.57.03-1.14.05-1.71,0-.21,0-.42.03-.63.1-.56.1-1.13.13-1.7.01-.18,0-.36.04-.54.11-.5.11-1.01.15-1.52.01-.15,0-.3.03-.45.13-.65.13-1.31.15-1.97,0-.12,0-.24.01-.36.14-.74.11-1.49.14-2.24.01-.48.01-.96.12-1.43.02-.08-.02-.17-.02-.25-.07-.03-.13-.08-.18-.07-.2.04-.4.13-.61.14-.49.03-.95.18-1.38.37-.66.29-1.34.51-2.03.73-.11.04-.22.09-.33.14-.36.15-.71.31-1.07.46-.39.16-.75.37-1.14.54-.49.21-.97.47-1.44.74-.7.4-1.33.91-2.07,1.26-.08.04-.15.11-.22.16-1.09.84-2.18,1.68-3.3,2.49-.19.14-.38.29-.56.45-.4.36-.78.74-1.21,1.08-.57.45-1.08.95-1.62,1.42-.95.83-1.76,1.79-2.59,2.74-.37.43-.73.87-1.07,1.33-1.11,1.49-2.12,3.05-3.03,4.67-.49.86-.93,1.74-1.3,2.66-.38.95-.79,1.88-1.18,2.82-.33.8-.62,1.62-.82,2.47-.15.64-.35,1.27-.58,1.89-.19.54-.36,1.08-.52,1.62-.15.52-.33,1.03-.42,1.56-.24,1.3-.61,2.56-.81,3.86-.24.81-.31,1.65-.45,2.47-.06.35-.15.71-.18,1.06-.07.87-.23,1.72-.22,2.59,0,.39.01.78-.05,1.17-.1.63-.11,1.25-.12,1.88-.04,2.19,0,4.38.04,6.56,0,.12,0,.24.03.36.13.75.08,1.49.01,2.18.04.41.07.77.1,1.13.02.21.01.42.06.62.09.35.09.71.13,1.07.02.21.05.42.08.62.03.24.06.47.09.71.02.21.02.42.07.62.09.38.11.77.11,1.16,0,.81.14,1.61.25,2.41.09.65.16,1.31.27,1.96.1.59.14,1.19.25,1.78.17.97.37,1.94.57,2.91.21,1.06.43,2.11.65,3.17.2.97.39,1.94.62,2.9.36,1.54.79,3.07,1.21,4.6.15.55.36,1.09.46,1.64.11.59.32,1.15.45,1.74.03.14.12.27.19.4.27.11.51.21.76.32,1.09.46,2.47.86,3.7,1.07.35.06.71.14,1.05.23.78.21,1.56.4,2.36.56.97.19,1.94.36,2.91.53.02,0,.05-.03.09-.05,0-.07.03-.17,0-.24-.29-.69-.6-1.37-.88-2.07-.66-1.61-1.24-3.25-1.82-4.88-.48-1.36-.87-2.74-1.23-4.13-.49-1.88-.96-3.77-1.46-5.65-.22-.84-.45-1.67-.62-2.53-.09-.47-.14-.95-.26-1.41-.1-.41-.19-.82-.27-1.23-.07-.35-.15-.7-.21-1.06-.14-.83-.38-1.63-.46-2.47-.14-.46-.12-.95-.22-1.42-.13-.62-.13-1.25-.27-1.87-.03-.75-.21-1.48-.23-2.23,0-.09-.02-.18-.04-.27-.08-.26-.07-.53-.09-.8-.05-.69-.08-1.37-.16-2.06-.07-.68-.05-1.38-.06-2.07,0-.12.04-.23.15-.31.16-.08.34-.07.52-.07.84-.01,1.68.02,2.51-.12.06-.01.12,0,.18,0,1.56-.03,3.12-.03,4.67,0,.15,0,.3,0,.45.03.3.06.6.05.89.07.87.05,1.74,0,2.6.18.14.03.3.02.45.03.27.01.54.01.81.04.08,0,.16.06.25.1.02.12.04.24.04.36.01.75.03,1.5.03,2.25,0,1.05-.02,2.1-.02,3.15,0,.9.01,1.8.02,2.7,0,2.97.01,5.93.02,8.9,0,.27,0,.54.03.81.04.3.05.6.05.9.01,2.28.03,4.56.05,6.83.02,2.79.03,5.57.05,8.36,0,.18,0,.36-.01.54-.05.63-.04,1.26,0,1.89,0,.08.04.17.07.27.18.05.35.13.52.14.66.03,1.31.1,1.96.21.09.01.18.02.27.02.48.01.96.02,1.44.03.27,0,.54,0,.81.04.36.06.72.05,1.08.06.66.02,1.32.05,1.98.06.78.01,1.56,0,2.34,0,.03,0,.06,0,.09-.03.05-.03.09-.07.15-.11-.05-.35-.09-.7-.15-1.06-.02-.12-.06-.23-.08-.35ZM73.83,83.88c-.34.06-.66.12-.99.17-.15.02-.3.04-.45.04-1.11.02-2.22.03-3.32.05-.33,0-.66.03-.99.03-.24,0-.48-.03-.71-.03-.54-.02-1.08-.03-1.62-.05-.36-.01-.72-.02-1.07-.11-.06-.01-.12-.02-.18-.02-.75.02-1.49-.16-2.23-.23-.48-.05-.95-.13-1.42-.19-.1-.01-.21-.16-.18-.27.16-.71.12-1.43.16-2.15.02-.3.01-.6.08-.89.05-.23.05-.48.07-.71.03-.27.07-.53.1-.8.02-.15.05-.3.06-.44.02-.81.17-1.6.33-2.4.07-.35.1-.71.16-1.06.27-1.56.67-3.1,1.05-4.64.11-.46.22-.93.34-1.39.28-1.07.6-2.13.98-3.17.48-1.32.97-2.64,1.53-3.93.57-1.32,1.17-2.63,1.9-3.87.15-.26.28-.53.4-.8.33-.74.74-1.44,1.2-2.1.27-.39.52-.8.76-1.22.58-1.02,1.23-1.99,1.87-2.96.05-.07.12-.13.19-.19.02-.02.05-.02.08-.02.07,0,.12.03.14.1.03.12.06.23.07.35.03.45.02.9.14,1.34.04.14.03.3.04.45.01.15,0,.3.03.45.14.56.14,1.13.24,1.69.06.36.09.71.1,1.07.02.54.03,1.08.13,1.61.03.15.02.3.03.45.02.33.02.66.08.99.1.59.13,1.19.15,1.79,0,.12,0,.24.02.36.11.59.09,1.19.11,1.79.02.75.02,1.5.08,2.25.15,1.97.08,3.95.12,5.93.02,1.02.04,2.04.05,3.06,0,.12,0,.24.02.36.14.92.11,1.85.15,2.78.02.48.02.96.08,1.43.06.44.03.9.05,1.35.03.66,0,1.32.15,1.97.01.54.03,1.08.03,1.62,0,.08-.07.16-.1.22ZM134.05,107.61c-.04.17-.11.26-.2.34-.27.24-.54.48-.8.72-.11.1-.24.19-.34.29-1.12,1.09-2.36,2.03-3.58,3-.54.43-1.06.87-1.61,1.3-.57.44-1.1.93-1.7,1.3-.07,0-.11-.03-.1-.1.05-.27.1-.53.04-.8-.02-.08-.02-.18,0-.27.09-.5.07-1.02.09-1.52.02-.45.05-.9.1-1.34.06-.6.06-1.2.08-1.8.02-.48.02-.96.03-1.44,0-.27.02-.54.07-.8.05-.26.04-.54.06-.81.03-.54.03-1.08.14-1.61.05-.23.05-.48.05-.72.02-.96.03-1.92.04-2.88,0-.48,0-.96.07-1.44.04-.24.02-.48.03-.72.02-1.32.04-2.64.07-3.96.01-.42.03-.83.09-1.25.06-.44.04-.9.05-1.35.01-.72.03-1.44.04-2.16,0-.1-.12-.25-.21-.26-.03,0-.06-.02-.09-.02-.42-.03-.83-.1-1.25-.15-.59-.07-1.2-.07-1.79-.1-.24-.01-.48,0-.71-.06-.35-.08-.72-.09-1.07-.03-.57.09-1.14.06-1.7.12-.15.01-.29.04-.45.06-.04.1-.09.18-.09.26-.01,5.28-.02,10.55-.03,15.83,0,.9.05,1.8.03,2.7-.04,1.89,0,3.78-.04,5.66-.03,1.56.03,3.12,0,4.68,0,.3,0,.6,0,.84-.07.18-.16.26-.26.32-.48.31-.96.61-1.44.92-.3.2-.61.38-.89.6-.4.32-.84.57-1.31.79-1,.48-1.99.99-3.02,1.39-.81.32-1.63.59-2.46.84-.12.04-.23,0-.31-.14,0-.1-.01-.22,0-.34.11-.83.12-1.67.28-2.5,0-.03.01-.06.02-.09.05-.81.21-1.6.21-2.41,0-.33.01-.66.03-.99.02-.33.02-.66.1-.98.05-.23.04-.48.07-.72.03-.3.07-.59.1-.89.03-.24.05-.48.08-.71.02-.18,0-.36.04-.54.13-.59.11-1.19.18-1.79.08-.74.1-1.49.24-2.23.06-.29.05-.6.07-.9.03-.51.04-1.02.12-1.52.06-.44.05-.9.07-1.35.01-.36.01-.72.12-1.07.02-.06.03-.12.03-.18.03-.78.17-1.55.18-2.33.01-1.2.04-2.4.07-3.6,0-.39.06-.77.09-1.26-.11-.31-.11-.72-.1-1.15.01-.3,0-.6,0-.9,0-.36,0-.72.07-1.07.05-.29.04-.6.05-.9.03-1.35.05-2.7.08-4.05,0-.42.02-.84.07-1.25.06-.53.04-1.08.05-1.62.02-1.17.04-2.34.05-3.51,0-.93,0-1.86-.03-2.79-.04-1.53-.05-3.06-.05-4.59,0-.33.02-.66-.06-.98-.03-.11-.03-.24-.03-.36-.01-.66-.03-1.32-.03-1.98,0-1.2-.04-2.4-.08-3.6,0-.03,0-.06,0-.09-.14-.71-.07-1.43-.1-2.15-.03-.66-.04-1.31-.16-1.97-.08-.47-.11-.95-.17-1.43-.06-.47-.05-.96-.06-1.44,0-.57,0-1.14-.14-1.7-.03-.84-.24-1.66-.23-2.5,0-.18,0-.36-.04-.54-.09-.38-.07-.78-.15-1.16-.17-.8-.12-1.61-.28-2.41-.04-.2-.04-.42-.05-.63-.02-.3-.03-.6-.1-.89-.04-.14-.05-.3-.06-.44-.07-.81-.2-1.6-.32-2.4-.07-.47-.13-.95-.21-1.42-.05-.29-.08-.59-.15-.88-.04-.17-.03-.36-.03-.54,0-.04.06-.09.09-.13.27.05.5.19.75.3,1.22.58,2.39,1.24,3.58,1.88.26.14.53.27.79.42.49.29.98.59,1.45.9.98.64,1.93,1.32,2.94,1.91.1.06.18.15.26.23,0,.14.02.26.02.38-.02.84-.04,1.68-.06,2.52,0,.09,0,.18-.01.27-.16,1.04-.12,2.09-.16,3.14-.01.36-.02.72-.08,1.07-.04.23-.04.48-.05.72-.02.66-.03,1.32-.06,1.98-.01.45,0,.9-.09,1.34-.04.2-.03.42-.03.63-.02,1.32-.04,2.64-.07,3.96,0,.24,0,.48-.03.72-.08.69-.08,1.37-.01,2.06,0,.03.02.06.01.09-.07.48-.04.95,0,1.43.03.48.03.96.04,1.44.02.84.03,1.68.06,2.52,0,.36.04.72.08,1.07.06.53.07,1.08.09,1.62.02.54.03,1.08.1,1.61.04.3.02.6.03.9.01.57.02,1.14.03,1.71,0,.12.05.23.2.34.61.07,1.26.16,1.91.21.51.04,1.02.02,1.52.14.2.05.42,0,.63.01.42,0,.84.02,1.26.03.42,0,.84,0,1.25-.09.23-.05.48-.04.71-.08.08-.01.15-.08.24-.13-.02-.66.05-1.32-.07-1.97-.02-.12-.02-.24-.03-.36-.02-1.05-.04-2.1-.05-3.15-.01-1.38-.02-2.76-.03-4.14,0-.12,0-.24,0-.36-.13-.92-.12-1.85-.16-2.78-.02-.36-.04-.72-.09-1.07-.06-.38-.05-.78-.07-1.17-.01-.33-.06-.65-.1-.98-.1-.77-.26-1.53-.27-2.32,0-.33-.1-.65-.12-.98-.04-.84-.22-1.66-.23-2.5,0-.18-.04-.36-.07-.53-.02-.18-.06-.35-.08-.53-.04-.45-.05-.9-.15-1.34-.04-.17-.04-.36-.05-.54-.02-.39-.02-.78-.12-1.16-.04-.14-.03-.3-.04-.45-.03-.42-.04-.84-.15-1.25-.03-.11-.01-.24-.01-.36,0-.08.13-.16.19-.13.18.1.37.2.54.31,1.32.83,2.6,1.71,3.86,2.64,1.28.94,2.54,1.91,3.8,2.87.14.11.26.24.38.36.01.14.03.26.03.38-.02,1.89-.05,3.78-.07,5.66,0,.48-.01.96-.03,1.44,0,.18-.03.36-.05.54-.01.15-.04.3-.04.45-.01.66-.02,1.32-.03,1.98-.02.75,0,1.5-.12,2.24-.04.26-.03.54-.03.81,0,1.56,0,3.12-.03,4.68-.09,4.02,0,8.03.04,12.05,0,.15-.01.3.01.45.12.77.08,1.56.09,2.33.02,1.59.03,3.18.05,4.77,0,.72,0,1.44.1,2.15.05.38.03.78.05,1.17.03.69.03,1.38.13,2.06.05.35.05.72.06,1.08.02.54.02,1.08.12,1.61.03.15.02.3.03.4ZM50.01,46.51c-.03.21-.09.41-.1.62-.03.48-.1.95-.19,1.42-.16.85-.3,1.71-.41,2.57-.12.92-.27,1.84-.34,2.76-.18.76-.12,1.55-.27,2.32-.05.23-.04.48-.05.72-.03.51-.05,1.02-.12,1.52-.06.41-.05.84-.07,1.26-.02.63-.01,1.26-.13,1.88-.05.26-.03.54-.05.81-.07,1.2-.19,2.39-.22,3.59,0,.09,0,.18-.02.27-.16.77-.14,1.55-.17,2.33-.01.39-.01.78-.08,1.16-.03.21-.02.42-.02.63-.02,1.02-.05,2.04-.07,3.06,0,.18,0,.36-.02.54-.14.77-.11,1.55-.15,2.33-.02.51,0,1.02-.09,1.52-.01,1.08-.02,2.16-.03,3.24.15.89.1,1.79.12,2.69.03.87.03,1.74.03,2.61,0,.93,0,1.86,0,2.79,0,.39.01.78.02,1.17.02,1.47,0,2.94-.02,4.4-.02,1.11,0,2.22,0,3.33,0,.45,0,.9,0,1.35.02,1.11.04,2.22.06,3.33,0,.03,0,.06,0,.09.16,1.1.09,2.21.12,3.32.02.66.02,1.31.12,1.97.07.44.05.9.07,1.35.03.57.02,1.13.11,1.7.06.38.03.78.06,1.17.03.48.04.95.12,1.43.06.38.05.78.05,1.17.02,1.08.04,2.16.06,3.24,0,.09,0,.18,0,.27.15,1.13.07,2.27.13,3.41,0,.03-.01.06-.02.09-.04.04-.08.09-.13.15-.13-.01-.29,0-.42-.05-1.22-.5-2.45-.96-3.67-1.46-.5-.2-.98-.45-1.48-.64-.68-.25-1.33-.55-1.98-.85-.33-.15-.64-.33-.94-.51-.04-.09-.09-.16-.11-.25-.02-.12-.02-.24-.02-.36,0-.51,0-1.02,0-1.53,0-.33,0-.66.07-.98.05-.23.05-.48.06-.72.03-.51.03-1.02.14-1.52.03-.15.03-.3.03-.45.03-.66.04-1.32.15-1.97.04-.23.02-.48.04-.72.04-.66.03-1.32.12-1.97.06-.44.05-.9.06-1.35.03-.69.02-1.38.14-2.06.05-.32.03-.66.05-.99.02-.48.04-.95.11-1.43.07-.44.06-.9.07-1.35.02-.9.04-1.8.12-2.69.05-.6.04-1.2.05-1.8.02-1.14.03-2.28.05-3.42,0-.15-.01-.3.02-.45.1-.44.07-.89.08-1.34,0-.36.02-.72.02-1.08,0-.18,0-.36-.01-.48-.09-.21-.22-.28-.37-.3-.15-.02-.3-.03-.45-.04-.18-.01-.37,0-.54-.05-.62-.16-1.25-.13-1.88-.17-.45-.03-.89,0-1.34-.09-.29-.05-.61-.06-.9,0-.51.1-1.01.08-1.52.1-.57.03-1.13.09-1.69.23-.04.05-.07.09-.13.16,0,.27-.01.57-.01.87,0,1.05-.02,2.1,0,3.15.02,1.23,0,2.46,0,3.69.01,1.8.03,3.6.05,5.39,0,.21,0,.42.03.63.1.53.08,1.08.15,1.61.14,1.01.12,2.03.13,3.05,0,.66,0,1.32.13,1.97.05.23.04.48.06.72.03.3.07.59.11.89.02.21.05.42.07.62.03.36.05.72.12,1.07.08.38.09.77.05,1.16,0,.05-.06.1-.09.16-.08-.02-.17-.03-.24-.08-.23-.15-.44-.31-.67-.46-.32-.22-.63-.45-.98-.63-.27-.14-.5-.32-.72-.54-.21-.21-.46-.38-.7-.55-.56-.39-1.12-.8-1.66-1.23-.44-.36-.91-.69-1.37-1.01-.49-.34-.94-.74-1.4-1.13-.07-.06-.11-.14-.17-.22-.1-.47-.05-.95.01-1.42.03-.21.06-.41.05-.62,0-.18-.03-.36-.02-.54.05-.72.1-1.43.16-2.15.02-.27.06-.54.07-.81.02-.69.03-1.38.06-2.07.01-.42.01-.84.08-1.26.04-.29.03-.6.03-.9.03-2.43.05-4.86.08-7.28,0-.39,0-.78.07-1.17.04-.2.03-.42.03-.63.02-2.25.04-4.5.05-6.74,0-.9-.03-1.8-.05-2.7,0-.15,0-.3-.03-.45-.09-.47-.09-.95-.1-1.43-.01-.6,0-1.2-.13-1.79-.05-.23-.03-.48-.03-.72-.01-1.02-.01-2.04-.03-3.06,0-.39-.02-.78-.1-1.16-.05-.26-.04-.54-.05-.81-.01-.45-.01-.9-.03-1.35,0-.21,0-.42-.05-.63-.12-.59-.12-1.19-.15-1.79,0-.15,0-.3-.03-.45-.12-.56-.12-1.13-.15-1.7-.04-.93-.18-1.85-.26-2.79.04-.05.09-.14.16-.18.57-.39,1.14-.78,1.71-1.16.05-.03.1-.06.15-.1.66-.57,1.41-1.02,2.09-1.55.21-.16.41-.35.62-.52.52-.45,1.04-.9,1.59-1.32.59-.46,1.19-.91,1.78-1.37.43-.33.85-.66,1.28-.98.02-.02.06-.01.09-.02.06.01.1.06.09.12-.08.38-.12.77-.13,1.16-.01.24-.05.48-.08.71-.01.09-.04.18-.04.27-.02.87-.17,1.73-.24,2.59-.04.48-.11.95-.15,1.43-.05.48-.02.96-.13,1.43-.04.2-.03.42-.05.63-.04.6-.04,1.2-.16,1.79-.05.23-.03.48-.04.72-.03.45-.03.9-.12,1.34-.05.26-.04.54-.05.81-.02.57-.03,1.14-.05,1.71,0,.09,0,.18,0,.27-.16,1.46-.1,2.93-.17,4.4-.02.48-.02.96-.1,1.43-.06.35-.04.72-.05,1.08-.02,1.02-.03,2.04-.05,3.06,0,.21-.04.42-.06.62-.07.77-.09,1.55-.07,2.31.07.06.1.11.15.13.4.12.81.2,1.24.22.21,0,.42.05.62.07.33.03.65.08.98.09.42.02.84,0,1.25.12.06.02.12.02.18.02.75,0,1.5.01,2.25.02.09,0,.18,0,.27-.02.5-.06,1.01-.12,1.54-.19.03-.03.06-.07.12-.14,0-.22.02-.46.02-.7,0-1.38,0-2.76,0-4.14,0-1.74-.01-3.48-.02-5.22,0-.42,0-.84,0-1.26,0-.42,0-.84-.07-1.25-.05-.23,0-.48-.03-.72-.1-1.2-.06-2.4-.07-3.59,0-.48,0-.96-.07-1.43-.06-.41-.04-.84-.05-1.26-.02-.57-.03-1.14-.05-1.71,0-.24,0-.48-.05-.72-.07-.36-.08-.71-.1-1.07-.03-.54-.03-1.08-.14-1.61-.04-.17-.03-.36-.04-.54-.04-.54-.03-1.08-.15-1.61-.04-.17-.03-.36-.04-.54-.02-.24,0-.48-.05-.72-.13-.65-.13-1.31-.16-1.97-.02-.36-.02-.72-.09-1.07-.03-.15-.02-.3-.03-.45,0-.06.02-.12.03-.18.06-.14.18-.23.3-.32.37-.26.74-.51,1.11-.76.15-.1.31-.18.47-.26.24-.13.49-.24.72-.37.28-.17.57-.33.87-.46.08-.03.17-.07.24-.12.57-.4,1.2-.67,1.83-.96.81-.38,1.62-.77,2.45-1.11.66-.27,1.32-.55,2.01-.73.07.02.11.07.1.13ZM106.75,103.22c.05,1.74.04,3.48-.04,5.21-.02.45-.1.89-.13,1.34-.04.45-.06.89-.15,1.34-.09.44-.13.89-.2,1.33-.38,2.47-1.02,4.86-1.86,7.21-.11.31-.23.62-.36.92-.63,1.43-1.24,2.86-1.97,4.23-.03.05-.07.09-.15.19-.87.23-1.71.45-2.54.68-.61.16-1.22.29-1.85.38-.8.12-1.58.31-2.38.44-.86.14-1.71.32-2.56.45-.77.12-1.55.15-2.32.27-.47.07-.96.03-1.44.03-.05,0-.11-.04-.16-.07,0-.06-.02-.13,0-.17.37-.72.74-1.44,1.11-2.16.26-.51.54-1,.79-1.51.26-.51.53-1.01.85-1.48.3-.45.57-.92.8-1.41.43-.92.87-1.84,1.28-2.77.19-.44.33-.9.49-1.35.1-.28.17-.58.29-.85.28-.63.49-1.29.68-1.95.24-.83.48-1.67.7-2.51.19-.75.34-1.52.51-2.28.09-.41.14-.83.24-1.23.08-.35.12-.71.16-1.06.04-.33.11-.65.18-.97.26-1.3.4-2.6.37-3.93-.02-1.05-.03-2.1-.05-3.15,0-.06,0-.12,0-.18-.1-.74-.14-1.49-.23-2.23-.17-1.46-.48-2.89-.83-4.32-.13-.55-.31-1.09-.42-1.65-.22-1.21-.55-2.39-.88-3.57-.1-.35-.16-.7-.25-1.05-.14-.55-.29-1.1-.45-1.65-.28-.98-.55-1.96-.85-2.93-.23-.74-.45-1.49-.65-2.24-.25-.93-.52-1.84-.82-2.75-.22-.65-.4-1.32-.55-1.99-.25-1.14-.59-2.26-.94-3.37-.51-1.63-.9-3.29-1.33-4.94-.19-1.12-.49-2.22-.63-3.35-.05-.42-.12-.83-.22-1.24-.07-.32-.11-.65-.13-.98-.01-.18-.02-.36-.06-.54-.07-.32-.08-.65-.11-.98-.03-.39-.07-.78-.11-1.16-.06-.69-.08-1.38,0-2.06.07-.69.09-1.37.11-2.06.03-.9.15-1.79.3-2.67.1-.59.21-1.18.28-1.77.07-.62.22-1.24.36-1.85.13-.55.29-1.1.43-1.65.36-1.4.95-2.71,1.58-4,.18-.38.4-.73.65-1.04.19-.12.37-.1.54-.06.38.08.76.17,1.14.26,2.25.52,4.44,1.22,6.62,1.97,1.3.45,2.59.94,3.87,1.43.22.08.46.14.63.33.03.05.02.1-.03.15-.38.38-.75.78-1.14,1.15-.61.58-1.18,1.19-1.67,1.88-.22.32-.47.62-.72.92-1.42,1.73-2.52,3.64-3.36,5.71-.25.61-.48,1.23-.72,1.84-.32.81-.55,1.64-.7,2.5-.07.41-.15.82-.24,1.23-.06.27-.09.53-.08.8,0,.99.01,1.98.03,2.97,0,.36.08.71.1,1.07.03.36.06.71.14,1.07.09.38.13.77.18,1.15.14,1.13.36,2.25.57,3.36.14.73.31,1.46.53,2.18.1.34.2.69.3,1.04.35,1.24.81,2.44,1.26,3.65.44,1.18.84,2.37,1.37,3.51.05.11.1.22.13.34.13.56.35,1.08.56,1.61.41,1.06.82,2.12,1.23,3.18.29.75.57,1.51.95,2.23.18.34.3.72.46,1.07.19.44.41.86.6,1.3.18.41.35.83.51,1.25.63,1.62,1.13,3.28,1.5,4.98.18.82.34,1.64.46,2.47.1.71.25,1.42.26,2.14,0,.06,0,.12.01.18.15.74.14,1.49.16,2.24Z"/>
      <g>
        <path d="M262.1,77.88c-5.55-.87-10.27-3.29-13.9-7.6-4.62-5.5-5.32-11.72-2.39-18.42,1.61-3.68,4.22-6.53,7.49-8.74,4.09-2.77,8.58-4.17,13.47-4.21,2.33-.02,4.58.4,6.86.78,2.79.46,5.19,1.72,7.52,3.17,2.8,1.75,4.69,4.28,5.78,7.46.42,1.22.87,2.42,1,3.72.17,1.68.15,3.37-.13,5.05-.18,1.06-.27,2.13-.52,3.17-.86,3.45-2.68,6.34-5.19,8.79-4.37,4.25-9.6,6.48-15.55,6.88-1.48.1-2.97-.02-4.45-.04ZM249.59,57.93c-.03.22-.08.45-.09.67-.31,3.78.19,7.3,2.88,10.14.08.08.14.17.19.27.38.79,1.09,1.23,1.77,1.69.5.34,1.04.61,1.55.94,2.29,1.49,4.83,2,7.53,2,3.72-.01,7.12-1.43,10.54-2.74.2-.08.39-.22.58-.34.95-.59,1.88-1.2,2.84-1.78,1.57-.96,2.74-2.31,3.66-3.89,1-1.72,1.74-3.55,2.14-5.5.38-1.84.54-3.7.05-5.53-.62-2.34-1.53-4.54-3.13-6.38-2.11-2.41-4.65-3.97-7.85-4.41-2.25-.31-4.49-.2-6.74.05-1.71.19-3.38.58-4.97,1.27-5.94,2.58-9.73,6.99-10.94,13.55Z"/>
        <path d="M471.96,43.01c-.14,1.64-.27,3.13-.4,4.56-.36.36-.65.12-.93.06-2.19-.48-4.37-1.03-6.58-1.46-2.77-.55-5.57-.72-8.44-.6-2.84.12-7.68.71-10.33,1.73-2.74,1.06-5.1,2.69-6.81,5.18-.24.35-.53.66-.77,1.01-.86,1.22-1.5,2.54-1.73,4.02-.38,2.43-.72,4.85-.16,7.25.15.66.31,1.29.72,1.83.03.04.07.08.09.12.65,2.05,2.34,3.12,3.97,4.22.82.55,1.81.88,2.76,1.23.95.35,1.93.64,2.92.88.69.17,1.41.24,2.12.3.66.06,1.35-.01,2.01.07,2.28.27,6.67-.01,8.91-.51,2.54-.57,5.07-1.23,7.58-1.91,1.31-.36,2.58-.86,3.87-1.29.19-.06.39-.11.69-.19.09,1.85-.11,3.63,0,5.45-.39.14-.67.27-.96.35-3.22.93-6.48,1.6-9.76,2.15-3.49.59-9.14.6-12.64.5-1.67-.05-3.2-.56-4.76-1.07-1.81-.59-3.47-1.42-5.06-2.41-2.16-1.34-3.79-3.19-4.92-5.45-2.57-5.16-2.73-10.51-.42-16.04.76-1.83,1.71-3.51,3.17-4.87,1.7-1.59,3.47-3.15,5.59-4.09,2.29-1.02,4.67-1.85,7.15-2.29,3.04-.53,8.19-.74,11.24-.47,2.77.24,5.5.65,8.22,1.14,1.15.21,2.31.39,3.67.62Z"/>
        <path d="M579.61,77.7c-.18-6.97-.36-13.7-.52-20.42-.13-5.2-.24-10.4-.36-15.76.68.18,1.23.31,1.77.48,3.36,1.1,6.74,2.16,10.07,3.32,3.23,1.13,6.41,2.37,9.61,3.56.27.1.54.21.79.35,2.46,1.38,4.97,2.68,7.34,4.18,1.83,1.16,3.56,2.51,5.2,3.9,1.52,1.29,2.82,2.79,3.31,4.79.82,3.35-.18,6.21-2.68,8.66-1.83,1.79-4.03,2.89-6.58,3.46-5.23,1.17-10.49,2.04-15.83,2.42-2.92.21-5.84.55-8.76.81-1.04.09-2.09.14-3.37.23ZM584.57,73.97c.48,0,.83.03,1.17,0,1.8-.21,3.61-.44,5.41-.67,1.34-.17,2.68-.35,4.01-.53,3.08-.42,6.15-.84,9.13-1.82,1.63-.54,3.14-1.24,4.58-2.16,1.86-1.19,2.86-2.8,3.13-4.88.17-1.3-.09-2.45-1.06-3.39-1.14-1.11-2.33-2.17-3.76-2.95-1.66-.91-3.35-1.79-4.98-2.74-2.99-1.74-6.11-3.21-9.34-4.47-1.24-.48-2.49-.95-3.68-1.52-1.47-.7-3.01-1.17-4.62-1.5-.26-.05-.54,0-.83,0,.23,4.46.53,8.82.67,13.19.14,4.42.12,8.85.16,13.45Z"/>
        <path d="M212.52,41.98c.01.84.05,1.54.03,2.25-.12,3.44-.26,6.87-.37,10.31-.04,1.28-.03,2.56,0,3.84,0,.5.11,1,.18,1.56,1.8.41,3.66.18,5.45.32,1.87.15,3.75.24,5.64.31,1.82.07,3.65.07,5.47.13,1.81.06,3.62.16,5.54.24.09-.37.2-.66.21-.95.1-3.49.17-6.97.28-10.46.03-1.08.18-2.16.19-3.23.01-1.07-.08-2.14-.13-3.17.44-.51,1.09-.41,1.65-.48.65-.08,1.31-.09,1.96-.12.58-.03,1.17-.11,1.79.14.01.23.05.48.04.73-.08,4.31-.24,8.62-.24,12.92,0,4.51.18,9.01.22,13.52.02,2.25-.09,4.51-.15,6.77,0,.14-.1.29-.18.5-1.68.24-3.34.17-5.09.15-.33-2.13-.14-4.23-.19-6.31-.05-2.09-.04-4.19-.06-6.24-.56-.35-1.17-.28-1.75-.26-1.9.06-3.77-.07-5.64-.26-2.05-.21-4.14-.3-6.22-.35-2.85-.08-5.71-.08-8.68-.12-.16,2.28.04,4.46.05,6.65.01,2.19,0,4.39.01,6.57-1.43.29-3.82.38-5.74.21-.25-.5-.19-1.07-.18-1.62.09-2.92.17-5.85.27-8.77.06-1.8.19-3.59.24-5.39.12-4.51.12-9.02-.28-13.51-.15-1.68-.13-3.37-.17-5.06,0-.14.09-.29.16-.51,1.8-.28,3.61-.17,5.71-.31Z"/>
        <path d="M318.39,73.52c0,1.36,0,2.61,0,3.83-.41.07-.81.05-1.21.06-4.74.11-9.27.05-14.01.12-2.49.04-5.32-.1-7.81-.09-.89,0-1.77.07-2.66.08-.4,0-.8-.05-1.3-.09-.06-.54-.01-.75-.03-1.23-.14-4.33-.19-8.67-.43-12.99-.35-6.34-.19-12.68-.02-19.01.02-.75.04-1.49.06-2.32h5.45c.28,2.14.11,4.25.16,6.35.05,2.17.03,4.34.05,6.5.02,2.11.05,4.23.06,6.34.01,2.17,0,4.34,0,6.5,0,2.11,0,4.22,0,6.4.4.08.73.22,1.06.21,3.79-.14,7.59.03,11.38-.28,3-.24,6.03-.27,9.23-.4Z"/>
        <path d="M425.85,77.37c-1.4.33-2.78.56-4.31.52-.06-.33-.16-.63-.16-.93-.05-3.09-.06-6.18-.12-9.27-.08-4.28-.2-8.56-.3-12.84-.01-.65-.01-1.3,0-1.95.03-3.09.06-6.18.1-9.27,0-.21.03-.42.06-.72,1.39-.36,2.78-.52,4.28-.66.09,1.41.18,2.74.2,4.08.04,2.71.11,5.42.17,8.12,0,.33.04.65.03.97-.08,5.48-.19,10.95-.22,16.43-.01,1.78.18,3.56.28,5.51Z"/>
        <path d="M327.56,76.81c-1.53.41-2.88.26-4.35.11-.07-.44-.19-.87-.2-1.3-.06-3.61-.22-7.23-.12-10.84.1-3.45-.06-6.89-.1-10.33-.06-4.23-.09-8.47-.12-12.71,0-.16.07-.32.13-.55.8-.28,1.62-.09,2.43-.05.81.04,1.65-.25,2.5.11.34.76.23,1.57.14,2.33-.51,4.73-.34,9.48-.65,14.21-.31,4.69-.08,9.37.17,14.05.07,1.3.14,2.59.19,3.89.01.33-.02.66-.03,1.08Z"/>
        <path d="M416.41,42.84c-.51-.46-1.02-.38-1.52-.38-3.65-.06-7.31-.21-10.95-.16-4.48.07-8.95.26-13.4.6-2.78.21-5.57.37-8.35.57-.93.07-1.9-.14-2.86.22-.03,1.27-.08,2.5.38,3.84,1.88.02,3.71-.02,5.54-.11,1.84-.09,3.69-.17,5.54-.19,1.83-.02,3.64-.24,5.44.01.1.24.19.36.19.47.01,2.26.04,4.52.02,6.78-.03,2.95-.18,5.88-.15,8.83.04,4.65.18,9.31.29,13.96,0,.14.03.29.06.44h4.76c-.41-3.53-.65-7.01-.76-10.49-.08-2.39-.13-4.78-.19-7.17-.05-1.89-.12-3.78-.17-5.66-.04-1.7-.07-3.4-.1-5.09-.01-.68,0-1.36.02-2.26,2,.07,3.8.17,5.59.2,1.85.04,3.7.02,5.56.03,1.78.01,3.57.17,5.41-.11-.12-1.53-.23-2.96-.33-4.35Z"/>
        <path d="M525.71,42c-2.99-.08-4.09.29-7.08.27-3.84-.02-11.85,1.05-15.82,8.7-1.73,3.33-2.78,6.43-4.2,9.9-1.07,2.64-2.07,5.3-3.36,7.86-.62,1.22-1.05,2.53-1.55,3.81-.38.98-.73,1.97-1.11,2.96-.2.51-.4,1.03-.6,1.54h5.42c.52-1.32,1.03-2.64,1.61-3.95.76-1.73,1.16-3.59,2.26-5.3,1.41,0,2.82,0,4.22,0,1.52,0,3.05.06,4.57-.04,2.37-.16,4.74-.11,7.11-.03,1.24.04,2.48,0,3.73.02.32,0,.63.06.99.09-.06,1.2-.1,2.29-.17,3.38-.07,1.05-.21,2.09-.27,3.13-.06,1.07-.06,1.74-.18,3.27,1.22-.02,3.67.16,4.82-.08.11-.02.2-1.83.18-2.04-.2-2.37-.05-4.07.18-6.42.26-2.66.14-3.47.25-5.05.06-.91.04-2.94.1-3.41.16-1.19.3-3.29.34-4.5.08-2.53.08-3.7.08-5.68,0-2.58,0-5.73.21-8.38-.45-.1-1.37-.06-1.74-.07ZM522.32,54.91c-.27,2.81.26,5.62-.05,8.43-.04.36-.09.71-.15,1.17-1.4.05-2.74.12-4.08.13-1.13.01-2.26,0-3.38-.08-1.92-.12-3.83,0-5.75.13-1.74.12-3.49.16-5.24.21-.38.01-.77-.06-1.27-.11.15-.48.25-.88.41-1.26,1.3-3.11,1.88-5.16,3.15-8.28.86-2.1,2.44-5.25,4.15-6.73,5.3-4.58,7.55-3.42,12.46-3.29.04.36.02,2.57,0,2.86-.21,2.77,0,4.04-.26,6.8Z"/>
        <path d="M587.78,92.37c-2.78-.08-3.8.32-6.58.3-3.57-.02-11.02,1.14-14.71,9.48-1.6,3.62-2.59,7-3.9,10.78-1,2.88-1.92,5.78-3.13,8.57-.58,1.33-.98,2.76-1.44,4.15-.36,1.07-.68,2.15-1.03,3.22-.18.56-.37,1.12-.56,1.68h5.04c.48-1.43.96-2.88,1.5-4.3.71-1.88,1.08-3.92,2.11-5.77,1.31,0,2.62,0,3.93,0,1.42,0,2.84.07,4.25-.04,2.21-.17,4.41-.12,6.61-.04,1.15.04,2.31,0,3.47.02.29,0,.59.06.92.1-.05,1.31-.09,2.5-.16,3.68-.07,1.14-.19,2.27-.25,3.41-.06,1.17-.06,1.89-.17,3.56,1.14-.02,3.41.17,4.49-.08.11-.02.19-1.99.17-2.22-.19-2.58-.05-4.44.17-7,.24-2.9.13-3.78.23-5.5.06-1,.04-3.21.09-3.72.15-1.3.28-3.59.31-4.9.07-2.76.07-4.03.07-6.19,0-2.81,0-6.24.2-9.13-.42-.11-1.28-.07-1.62-.08ZM584.63,106.44c-.25,3.07.24,6.13-.04,9.19-.04.39-.09.77-.14,1.27-1.31.05-2.55.13-3.79.14-1.05.01-2.1,0-3.15-.09-1.79-.13-3.56,0-5.34.15-1.62.13-3.25.17-4.87.23-.35.01-.71-.07-1.18-.12.14-.52.23-.96.38-1.37,1.2-3.39,1.74-5.62,2.93-9.02.8-2.29,2.27-5.72,3.86-7.33,4.93-4.99,7.02-3.73,11.59-3.59.04.39.02,2.8,0,3.12-.2,3.02,0,4.4-.24,7.41Z"/>
        <path d="M443.53,92.58c-2.78-.08-5.3.39-7.2.6-4.45.49-10.24,1.8-13.93,10.13-1.6,3.62-2.75,6.05-4.06,9.83-1,2.88-1.92,5.78-3.13,8.57-.58,1.33-.98,2.76-1.44,4.15-.36,1.07-.68,2.15-1.03,3.22-.18.56-.37,1.12-.56,1.68h5.04c.48-1.43.96-2.88,1.5-4.3.71-1.88,1.08-3.92,2.11-5.77,1.31,0,2.62,0,3.93,0,1.42,0,2.84.07,4.25-.04,2.21-.17,4.41-.12,6.61-.04,1.15.04,2.31,0,3.47.02.29,0,.59.06.92.1-.05,1.31-.09,2.5-.16,3.68-.07,1.14-.19,2.27-.25,3.41-.06,1.17-.06,1.89-.17,3.56,1.14-.02,3.41.17,4.49-.08.11-.02.19-1.99.17-2.22-.19-2.58-.05-4.44.17-7,.24-2.9.13-3.78.23-5.5.06-1,.04-3.21.09-3.72.15-1.3.28-3.59.31-4.9.07-2.76.07-4.03.07-6.19,0-2.81,0-6.24.2-9.13-.42-.11-1.28-.07-1.62-.08ZM440.38,106.65c-.25,3.07.24,6.13-.04,9.19-.04.39-.09.77-.14,1.27-1.31.05-2.55.13-3.79.14-1.05.01-2.1,0-3.15-.09-1.79-.13-3.56,0-5.34.15-1.62.13-3.25.17-4.87.23-.35.01-.71-.07-1.18-.12.14-.52.23-.96.38-1.37,1.2-3.39,1.74-5.62,2.93-9.02.8-2.29,2.18-4.86,3.77-6.47,4.93-4.99,8.66-3.8,11.68-4.45.04.39.02,2.8,0,3.12-.2,3.02,0,4.4-.24,7.41Z"/>
        <path d="M562.94,74.65c.93,1.03,1.87,2.07,2.8,3.1h7.22c.09-2.18.19-4.36.19-6.53,0-2.9-.15-7.93-.23-10.82-.05-1.84-.1-3.68-.11-5.52-.01-1.34.02-2.68.06-4.02.03-.89.13-1.79.13-2.68,0-1.4-.05-2.79-.1-4.18-.01-.32-.1-.63-.16-.94-1.2-.21-2.3-.48-3.47-.25-.05.18-.11.29-.11.39-.07,5.87-.16,13.87-.2,19.74-.01,2.12.12,4.24.16,6.35.02.77.03,1.54-.23,2.67-9.11-10.02-18.01-19.82-26.83-29.53-3.23-.25-5.22-.19-6.23.18-.03.15-.09.32-.09.48.06,2.56.04,5.13-.08,7.71-.14,3.19.03,6.36.05,9.55,0,.95.02,1.9-.03,2.85-.18,3.36.1,3.89-.09,7.25-.1,1.74-.06,3.95-.12,5.69-.01.43.1.85.16,1.32.8-.02,1.47,0,2.15-.05.66-.04,1.33.09,2.05-.12.1-1.14.24-2.19.29-3.25.24-4.93-.15-7.51.04-12.43.14-3.69.2-7.39.31-11.08.01-.48-.14-1.01.46-1.47.32-.01.68-.03,1.05-.05.61-.03,1.03.19,1.39.61,2.25,2.59,4.47,5.2,6.49,7.96,2.05,2.79,4.1,5.59,6.2,8.35,2.14,2.8,4.34,5.57,6.51,8.35.1.13.22.26.33.38Z"/>
        <path d="M523.17,130.63c-1.5.09-2.82.04-4.24-.13-.24-1.67,0-2.74-.03-4.39-.03-1.66,0-3.33.01-4.95-.2-.08-.32-.17-.43-.16-6.76.52-13.52,1.03-20.3,1.2-.25,0-.49.09-.8.15-.37,1.56.03,3.09.06,4.62.04,1.48.13,2.1.19,3.66-1.79.36-3.49.19-5.08.27-.14-.14-.2-.18-.22-.23-.05-.11-.11-.23-.12-.35-.03-.68-.05-.51-.06-1.19-.2-12.36-.28-24.85-.53-37.26,1.8-.3,3.55-.09,5.3-.17.08.4.06,1.03.09,1.38.32,3.45.19,6.53.2,9.99.02,4.52.11,9.03.19,13.55,0,.61.07,1.22.1,1.9,1.02.15,1.97.05,2.91-.05,4.84-.52,9.69-.66,14.55-.88,1.33-.06,2.66-.24,4.1-.37.06-1.06.12-2.03.16-3.01.15-3.65.29-7.29.43-10.94.12-3.22-.13-5.84.05-9.5-.02-.24,0-.95.02-1.32,1.92-.04,3.52.13,5.06-.01.07.34-.09.72,0,1.04-.22,2.71-.2,4.91-.48,7.62-.41,4-.3,9.05-.73,13.05-.1.98-.17,1.97-.2,2.96-.05,1.61-.06,3.21-.08,4.82-.03,2.23-.05,4.45-.08,6.68-.01.8-.02,1.02-.04,2.03Z"/>
        <path d="M684.62,130.69c-1.5.09-3.17.13-4.59-.05-.24-1.67,0-2.74-.03-4.39-.03-1.66.02-4.26.03-5.88-.2-.08-.42.01-.53.02-6.76.52-13.63.23-20.25-.13-.25,0-.57-.06-.88,0-.37,1.56.13,5.32.17,6.85.04,1.48.13,2.1.19,3.66-1.98-.05-2.97-.09-4.57,0-.14-.14-.71.1-.74.04-.05-.11-.11-.23-.12-.35-.03-.68-.05-.51-.06-1.19-.24-14.56-.33-27.04-.53-37.26,1.8-.3,3.55-.09,5.3-.17.08.4.06,1.03.09,1.38.32,3.45.19,6.53.2,9.99.02,4.52-.06,6.48.01,11,0,.61.02,1.61.06,2.29,1.02.15,3.14.24,4.07.14,4.9-.05,8.95.49,13.8.27,1.33-.06,2.47-.05,3.91-.18.06-1.06.11-1.4.15-2.37.15-3.65.29-7.29.43-10.94.12-3.22-.13-5.84.05-9.5-.02-.24,0-.95.02-1.32,1.92-.04,3.52.13,5.06-.01.07.34-.09.72,0,1.04-.22,2.71-.2,4.91-.48,7.62-.41,4-.25,9.15-.68,13.14-.1.98-.03,1.87-.06,2.86-.05,1.61.02,3.13,0,4.74-.03,2.23.03,4.46,0,6.69-.01.8-.02,1.02-.04,2.03Z"/>
        <path d="M553.03,126.1c-3.32.11-6.63.22-9.95.34-2.43.09-4.85.21-7.28.28-.4.01-.79-.14-1.19-.22-.05-.41-.12-.72-.11-1.03.08-2.41.16-4.83.26-7.24.03-.63-.06-1.3.5-1.94,1.79.01,3.6.02,5.4.04,1.81.02,3.61.13,5.43.05,1.46-.06,2.91.12,4.39,0-.03-.64-.02-1.28.04-1.92-.06-.86-.06-1.73.05-2.59-.44-.02-.88,0-1.31,0-4.29,0-8.58.03-12.87.03-.34,0-.68-.08-1.07-.13.04-4.84.2-9.58.43-14.33.28-.09.47-.2.64-.2,3.15-.04,6.3-.13,9.43-.1,2.59.03,5.17.09,7.76.15.07-1.26.35-2.81.34-4.86-1.3,0-2.6.05-3.9.03-2.11-.03-4.2-.18-6.32-.16-3.14.04-6.3.17-9.45.28-1.08.04-2.16.13-3.39.21-.07.67-.14,1.06-.15,1.45-.04,1.5,0,3-.12,4.5-.3,3.68-.23,7.31-.1,10.93.2,5.63,0,11.3-.3,16.99-.08,1.42-.26,2.36-.09,3.75.24.07.4.16.57.16,6.96-.08,13.98-.34,20.92-.26.47,0,.95-.08,1.49-.12.03-.09.04-.16.07-.24-.05-.54-.13-1.08-.15-1.63-.03-.74,0-1.47.03-2.21Z"/>
        <path d="M293.31,94.26c.63,0,2.59-.19,3.58-.05,2.71-.05,4.78.08,7.31.03,4.26-.07,8.43.43,12.57,1.27.95.19,1.91.38,2.86.59,1.53.34,2.94.92,4.26,1.7.89.53,1.64,1.19,2.1,2.03,1.03,1.86,1.55,3.78,1.07,5.88-.71,3.1-2.89,4.92-6.15,5.87-2.47.73-4.97,1.33-7.57,1.58-1.29.12-2.59.16-3.89.26-.63.05-1.26.15-1.9.24,0,.27-.04.45.03.6,1.44,3.25,2.99,6.46,5.56,9.15,2.32,2.43,5.25,3.97,8.92,4.18,1.57.09,3.12.03,4.67-.18.31-.04.63-.08,1.02-.13.39.59.14,1.16.1,1.7-.05.52-.1,1.04-.21,1.55-.11.56-.08,1.17-.62,1.72-3.51.33-7.09.27-10.44-1.07-2.39-.96-4.43-2.42-6.14-4.24-2.34-2.47-4.1-5.24-5.59-8.16-.73-1.42-1.31-2.9-1.97-4.35-.07-.16-.21-.29-.3-.42-1.48-.26-3.88-.25-5.34.04-.31,1.92.23,3.87.22,5.82,0,1.97.11,3.94.17,5.9.06,1.96.12,3.92.18,5.97-1.63.42-3.14.14-4.68-.01-.1-.26-.24-.48-.24-.69.04-12.04-.05-24.09.4-36.12.01-.28-.02-.42.05-.68ZM297.12,109.29c.19.02.44.06.69.06,1.49-.03,2.99-.05,4.48-.11,3.05-.12,6.12.1,9.15-.35.45-.07.91-.04,1.36-.06,1.75-.08,3.51-.13,5.26-.25.71-.05,1.42-.18,2.1-.35,1.48-.35,2.5-1.19,3.01-2.48.19-.49.39-.99.51-1.49.18-.78.02-1.49-.65-2.08-.79-.71-1.68-1.35-2.76-1.59-1.57-.35-2.87-1.13-4.52-1.18-.45-.01-1.22-.11-1.64-.23-2.13-.64-4.2-.62-6.38-.75-1.93-.11-4,.09-5.94,0-1.03-.05-2.07-.16-3.1-.23-.5-.03-1.25-.17-1.74-.18-.11.25,0,.54,0,.7-.03,3.41-.06,6.83-.07,10.24,0,.09.13.19.25.35Z"/>
        <path d="M381.41,94.4c1.59,0,2.92,0,4.35-.01.06.37.17.72.18,1.06.07,4.54.13,9.08.2,13.62.06,3.99.04,7.98.65,11.99.16,1.04.48,2.02.94,3,.68,1.44,1.73,2.46,3.27,3.1,1.95.81,3.93,1.49,5.99,1.13,2-.35,3.78-1.16,5.27-2.47,1.91-1.68,3.02-3.75,3.77-6.15,1.27-4.06,1.23-8.28,1.23-12.51,0-3.93-.15-7.87-.22-11.8,0-.35.02-.7.04-1.1.72-.29,1.43-.11,2.12-.07.63.03,1.27.14,1.92.22.44,1.08.42,2.12.41,3.12-.04,4.71-.14,9.42-.22,14.13-.02.91-.04,1.81-.09,2.71-.19,3.75-.96,7.36-2.2,10.86-.14.39-.32.78-.57,1.1-1.7,2.26-3.93,3.85-6.87,4.5-3.93.86-7.9.78-11.95-.15-1.55-.36-2.91-1.1-4.31-1.78-.68-.33-1.06-.96-1.33-1.59-1.03-2.41-2.06-4.79-2.32-7.41-.37-3.77-.53-7.51-.48-11.26.06-3.62.05-7.25.09-10.88.01-1.08.09-2.15.14-3.37Z"/>
        <path d="M247.05,93.6c2.31-.3,4.35-.18,6.37.03,2.24.23,4.47.57,6.71.87.79.11,1.59.21,2.36.41,3.24.85,6.36,1.97,9.36,3.36,2.34,1.08,4.21,2.56,5.36,4.67.65,1.19.9,2.39.79,3.65-.29,3.19-1.93,5.62-5.16,7.21-2.02.99-4.23,1.49-6.48,1.91-4.65.87-9.4,1.25-14.19,1.36-.35,0-.69.06-1.12.1-.53,4.83-.6,9.6-.06,14.47-1.74.12-3.3.05-4.95-.25-.05-.4-.15-.76-.14-1.12.08-3.8.15-7.6.29-11.39.13-3.54.39-7.08.52-10.63.07-1.93,0-3.86,0-5.8,0-2.92.27-5.83.35-8.87ZM251.36,97.45c-.4,3.43-.48,13.14-.12,14.54.97.11,1.98.29,2.98.32,4.66.13,9.25-.21,13.67-1.4,1.51-.4,2.97-.89,4.23-1.72,1.98-1.3,2.15-3.01,1.37-4.62-.83-1.69-2.08-3.05-4.12-3.79-.81-.29-1.62-.6-2.45-.86-3.69-1.14-7.55-1.44-11.35-2.05-1.35-.21-2.72-.27-4.22-.42Z"/>
        <path d="M476.43,126.27c-.56,1.69-1.33,3.14-2.09,4.65-7.66.02-15.29.03-23.04.05-.02-1.84-.03-3.62-.06-5.39-.03-1.86-.08-3.73-.13-5.59-.04-1.8-.12-3.6-.14-5.41-.02-1.8.03-3.61.02-5.41-.01-1.8-.09-3.61-.08-5.41,0-1.86.08-3.73.12-5.6.04-1.79-.33-3.58-.05-5.43,1.53-.35,3.03-.37,4.64-.61.09.52.23.91.23,1.31,0,2.52.01,5.05-.06,7.58-.1,3.61-.32,7.22-.41,10.83-.1,4.15-.1,8.3-.16,12.45-.01.84-.08,1.67-.12,2.6,1.83.24,3.58-.13,5.32-.18,1.77-.06,3.54.07,5.3.03,1.77-.04,3.54-.2,5.31-.28,1.76-.08,3.51-.11,5.4-.17Z"/>
        <path d="M621.24,126.27c-.56,1.69-1.33,3.14-2.09,4.65-7.66.02-15.29.03-23.04.05-.02-1.84-.03-3.62-.06-5.39-.03-1.86-.08-3.73-.13-5.59-.04-1.8-.12-3.6-.14-5.41-.02-1.8.03-3.61.02-5.41-.01-1.8-.09-3.61-.08-5.41,0-1.86.08-3.73.12-5.6.04-1.79-.33-3.58-.05-5.43,1.53-.35,3.03-.37,4.64-.61.09.52.23.91.23,1.31,0,2.52.01,5.05-.06,7.58-.1,3.61-.32,7.22-.41,10.83-.1,4.15-.1,8.3-.16,12.45-.01.84-.08,1.67-.12,2.6,1.83.24,3.58-.13,5.32-.18,1.77-.06,3.54.07,5.3.03,1.77-.04,3.54-.2,5.31-.28,1.76-.08,3.51-.11,5.4-.17Z"/>
        <path d="M281.95,94.44c1.65-.07,3.11-.02,4.51.08.14.38.14.65.13.81-.03,2.34-.06,4.68-.12,7.02-.09,3.12-.17,6.24-.31,9.36-.23,5.09-.43,10.19-.08,15.28.09,1.37.12,2.75.15,4.13,0,.4-.07.8-.11,1.17-1.45.21-3.12.15-4.47-.16-.07-.36-.2-.76-.2-1.17-.04-4.2-.12-8.4-.09-12.6.02-3.48.17-6.96.27-10.44.12-3.9.25-7.79.37-11.69.02-.53-.03-1.06-.06-1.8Z"/>
        <path d="M338.19,132.16c-1.53.16-2.85.29-4.04.41-.6-.3-.67-.71-.67-1.13,0-.7,0-1.41.02-2.11.15-8.22.37-16.44.05-24.66-.11-2.81-.16-5.63-.23-8.45,0-.11.07-.21.14-.4,1.4-.26,2.84-.18,4.4-.19.04.53.12.98.11,1.44-.14,6.46-.33,12.92-.42,19.37-.06,4.29.08,8.57.48,12.84.08.87.1,1.75.16,2.87Z"/>
        <path d="M646.98,91.69c-1.28-.05-2.56-.1-3.85-.11-3.31-.02-6.61-.01-9.92-.01-2.02,0-4.05,0-6.07.02-3.13.02-6.25,0-9.38.08-2.7.07-5.15.17-7.85.31-.17,0-.6-.03-.84.05.06,1-.17,2.67.02,3.84,3.54-.12,6.97-.25,10.4-.35,3.43-.09,6.85-.15,10.47-.22-.03,3.28-.08,6.28-.09,9.29-.01,2.94,0,5.87,0,8.81,0,3.01,0,6.01.03,9.02.03,2.78-.21,5.6-.07,8.52h3.97c.07-.34.16-.61.16-.86-.04-3.14-.07-6.29-.16-9.42-.21-7.9.1-15.81.83-23.74.05-.53.18-1.05.28-1.64.61-.01,1.1-.04,1.58-.02,3.05.12,6.11.26,9.16.38.47.02,1.41.1,1.95.07.24-.93,0-1.88.2-2.7.08-.33.06-.82.09-1.24-.34-.07-.62-.04-.91-.06Z"/>
        <path d="M375.95,94.36c-.21-.03-.45-.11-.69-.11-5.25.07-10.5.15-15.74.23-.64,0-1.28.04-1.92.05-3.07.06-6.14.14-9.21.16-1.56.01-3.12,0-4.68,0v4.3c.32-.02.65-.05.98-.06,2.04-.07,4.09-.02,6.13-.01,1.96,0,3.94-.17,5.83.03.11.23.21.34.2.44-.1,2.41-.21,4.82-.31,7.23-.06,1.48-.19,2.97-.17,4.45.06,6.25-.15,12.5-.51,18.74-.02.29,0,.59,0,.86,1.72.26,3.17.2,4.71-.19.01-.4.05-.82.03-1.24-.11-4.02-.3-8.03-.32-12.05-.03-4.76.07-9.53.16-14.3.02-1.28.05-2.58.31-3.94,1.21-.19,2.35-.22,3.49-.22,2.94,0,5.89,0,8.83-.02.88,0,1.76-.12,2.59-.18.56-1.74.6-2.33.31-4.17Z"/>
        <path d="M238.22,100.87s-4.77-1.75-8.9-2.62c-6.88-1.46-13.58-3.61-16.53.38-1.75,2.37-1.22,11.7-1.22,11.7l23.34.02,6.03.12s1.09,6.9-.08,12.37c-1.5,7.03-3.78,8.6-12.32,8.26-8.04-.32-21.43-4.71-21.43-4.71l.07-5.49s14.17,4.75,22.99,6.14c9.59,1.51,7.09-11.86,7.09-11.86l-30.59-.56s-.18-6.37.49-10.71c.98-6.31,3.46-9.07,6.32-10.68s9.5-.69,14.97.19,12.16,3.64,12.16,3.64l.05,4.5-2.44-.69Z"/>
        <path d="M368.86,48.51s-5.21-1.67-9.72-2.51c-7.52-1.39-14.84-3.44-18.06.39-1.92,2.28-2.25,11.1-2.25,11.1l26.9.92,7.94.37s.31,4.97-.97,10.22c-1.65,6.75-5.13,8.86-14.46,8.54-8.78-.3-23.4-4.49-23.4-4.49l.08-5.27s11.07,5.14,25.11,5.86c10.57.54,7.77-11.4,7.77-11.4l-33.42-.49s-.54-6.96.2-11.13c1.08-6.06,4.14-7.87,7.26-9.42,3.12-1.55,10.38-.68,16.35.16,5.97.84,14.33,2.92,14.33,2.92l-.99,4.88-2.66-.66Z"/>
      </g>
    </g>
  </g>
</svg>