<svg xmlns="http://www.w3.org/2000/svg" version="1.1" xmlns:xlink="http://www.w3.org/1999/xlink" width="512" height="512" x="0" y="0" viewBox="0 0 502.153 502.153" style="enable-background:new 0 0 512 512" xml:space="preserve" class="">
    <g>
        <linearGradient id="a" x1="1" x2="500" y1="32" y2="32" gradientUnits="userSpaceOnUse">
            <stop offset="0" stop-color="#99cc33"></stop>
            <stop offset="1" stop-color="#63861c"></stop>
        </linearGradient>
        <path fill="url(#a)" d="M251.076 502.153a7.499 7.499 0 0 1-7.5-7.5v-83.841c0-4.143 3.357-7.5 7.5-7.5s7.5 3.357 7.5 7.5v83.841a7.5 7.5 0 0 1-7.5 7.5z" opacity="1" data-original="url(#a)"></path>
        <path fill="url(#a)" d="M498.086 293.913c-7.87 11.62-46.59 65.09-107.36 87.28-12.14 4.42-24.03 8.75-36.16 12.92-1.59.55-1.75 2.56-.59 3.46h.01c22.55 5.85 41.82 16.23 54.5 24.49 7.03 4.58 12.04 8.51 14.45 10.65 1.03.86.94 2.46-.18 3.2-6.38 4.19-27.4 15.64-66.76 15.74-9.13.02-19.26-.57-30.42-2-28.08-3.61-48.62-11.75-60.94-17.98-1.83-.93-3.48-1.8-4.94-2.62-3.67-2.05-6.18-3.7-7.51-4.61a.673.673 0 0 0-.11-.07c-.33-.21-.67-.29-.99-.28h-.01c-.72.02-1.4.47-2.05.94h-.01c-21.54 13.46-48.04 21.31-73.44 24.62-59.22 7.61-89.32-8.58-97.18-13.75-1.13-.73-1.21-2.33-.18-3.19 20.48-15.98 37.54-26.27 68.77-34.92 1.9-.41 2.02-3.27.17-3.82-11.55-3.99-23.55-8.33-35.73-12.78-60.77-22.19-99.49-75.66-107.36-87.28a1.997 1.997 0 0 1 1.09-3.04c6.27-1.77 11.98-3.11 18.81-4.45 22.61-4.4 60.32-8.67 99.11.37 0 0 .08.01.24.04 1.69.2 2.88-1.73 1.83-3.16-2.45-3.35-4.9-6.78-7.34-10.25-46.37-66.22-54.71-142.72-56.01-159.44-.12-1.52 1.44-2.61 2.83-1.97 3.45 1.56 10.85 5.27 15.36 7.76 26.95 14.61 77.94 47.07 114.82 99.74 2.22 3.17 4.39 6.33 6.51 9.49l.01.01c1.07 1.67 3.76.78 3.63-1.21-.58-12.11-.88-24.63-.88-37.44 0-93.96 36.63-172.21 45.22-189.26.73-1.47 2.83-1.47 3.56 0 2.77 5.49 5.63 11.72 8.22 17.71 13.8 31.94 37 96.77 37 171.55 0 12.81-.3 25.33-.88 37.44-.1 2.02 2.52 2.88 3.64 1.2 2.12-3.16 4.29-6.32 6.51-9.49 46.36-66.2 114.99-100.48 130.18-107.5 1.39-.64 2.95.45 2.83 1.97-1.3 16.72-9.64 93.22-56.01 159.44-2.44 3.47-4.89 6.9-7.34 10.25-1.1 1.5.26 3.54 2.07 3.12 38.79-9.04 76.5-4.77 99.11-.37 6.82 1.34 12.54 2.68 18.81 4.45 1.3.38 1.85 1.909 1.09 3.04z" opacity="1" data-original="url(#a)"></path>
        <path fill="url(#a)" d="M176.716 389.023c-9.51 2.23-20.23 5.74-29.37 8.66 1.55-.67 1.54-3.2-.19-3.71-11.55-3.99-23.55-8.33-35.73-12.78-60.77-22.19-99.49-75.66-107.36-87.28a1.997 1.997 0 0 1 1.09-3.04c.21-.06.43-.12.67-.19.18-.05.36-.1.55-.15.75-.21 1.49-.41 2.22-.6.65-.17 1.28-.34 1.92-.5.27-.07.54-.14.82-.21.38-.1.77-.19 1.16-.29.58-.14 1.17-.29 1.76-.43 1.99-.46 4.19-.96 6.61-1.46.48-.09.97-.19 1.46-.29.54-.11 1.09-.22 1.64-.33 13.11 17.93 49.64 62.12 103.46 81.77 12.95 4.73 37.21 14.1 49.42 18.29 1.26.43 1.17 2.24-.13 2.54z" opacity="1" data-original="url(#a)"></path>
        <g fill="#63861c">
            <path d="M422.756 435.913c-6.38 4.19-27.4 15.64-66.76 15.74-9.13.02-19.26-.57-30.42-2-28.08-3.61-48.62-11.75-60.94-17.98-1.83-.93-3.48-1.8-4.94-2.62-3.67-2.05-6.18-3.7-7.51-4.61a.673.673 0 0 0-.11-.07c12.74 5.38 32.52 10.07 57.5 13.28 11.16 1.43 21.29 2.02 30.42 2 39.34-.1 63.3-12.6 69.69-16.8h.01c6.4 4.24 10.97 7.85 13.24 9.86 1.03.859.94 2.46-.18 3.2zM251.536 424.143c.17.04.35.11.52.22-.17-.07-.35-.15-.52-.22zM224.076 190.362c0 12.81.57 54.28 1.15 66.39.1 2.02-2.52 2.88-3.64 1.2a574.79 574.79 0 0 0-6.51-9.49c-10.29-14.69-12.88-18.29-13.54-19.18 1.15 1.23 3.29.5 3.41-1.21.01-.09.01-.18.01-.27-.58-12.11-.88-24.63-.88-37.44 0-93.96 36.63-172.21 45.22-189.26.73-1.47 2.83-1.47 3.56 0 .27.53.57 1.13.89 1.78.16.32.32.66.5 1.02.87 1.77 1.88 3.9 3.02 6.38.12.24.23.49.35.75.73 1.59 1.5 3.31 2.32 5.16.16.36.32.73.48 1.11.22.49.44 1 .66 1.51-13.8 31.941-37 96.77-37 171.55zM152.716 293.023c-17.42-4.06-27.73-5.9-29.4-6.19 1.69.2 2.88-1.73 1.83-3.16-2.45-3.35-4.9-6.78-7.34-10.25-46.37-66.22-54.71-142.72-56.01-159.44-.12-1.52 1.44-2.61 2.83-1.97 2.14.99 5.36 2.53 9.42 4.61.88.46 1.8.94 2.76 1.45 1.02.54 2.08 1.1 3.18 1.7 4.57 30.88 17.59 88.9 53.82 140.65 2.44 3.48 18.52 26.13 20.98 29.49 1.09 1.5-.27 3.53-2.07 3.11zM176.716 389.023c-9.51 2.23-20.23 5.74-29.37 8.66 1.55-.67 1.54-3.2-.19-3.71-11.55-3.99-23.55-8.33-35.73-12.78-60.77-22.19-99.49-75.66-107.36-87.28a1.997 1.997 0 0 1 1.09-3.04c.21-.06.43-.12.67-.19.18-.05.36-.1.55-.15.66-.19 1.4-.39 2.22-.6.6-.16 1.24-.33 1.92-.5.27-.07.54-.14.82-.21.38-.1.77-.19 1.16-.29.58-.14 1.17-.29 1.76-.43 1.99-.46 4.19-.96 6.61-1.46.48-.09.97-.19 1.46-.29.54-.11 1.09-.22 1.64-.33 13.11 17.93 49.64 62.12 103.46 81.77 12.95 4.73 37.21 14.1 49.42 18.29 1.26.43 1.17 2.24-.13 2.54zM191.576 436.653c23.09-2.96 45.13-8.441 59.5-12.561-7.14 4.6-34.77 20.331-75.5 25.561-59.22 7.61-89.32-8.58-97.18-13.75-1.13-.73-1.21-2.33-.18-3.19 2.64-2.21 7.89-6.38 15.29-11.21.07.54.37 1.06.88 1.4 7.86 5.169 37.96 21.37 97.19 13.75zM349.436 293.023c17.42-4.06 27.73-5.9 29.4-6.19-1.69.2-2.88-1.73-1.83-3.16 2.45-3.35 4.9-6.78 7.34-10.25 46.37-66.22 54.71-142.72 56.01-159.44.12-1.52-1.44-2.61-2.83-1.97-2.14.99-5.36 2.53-9.42 4.61-.88.46-1.8.94-2.76 1.45-1.02.54-2.08 1.1-3.18 1.7-4.57 30.88-17.59 88.9-53.82 140.65-2.44 3.48-18.52 26.13-20.98 29.49-1.09 1.5.27 3.53 2.07 3.11zM498.086 293.913c-7.87 11.62-46.59 65.09-107.36 87.28-12.142 4.425-24.026 8.747-36.16 12.92-1.59.55-1.75 2.56-.59 3.46-9.22-2.94-18.91-6.29-28.54-8.55-1.3-.3-1.39-2.11-.13-2.54 12.21-4.19 36.47-13.56 49.42-18.29 53.82-19.65 90.35-63.84 103.46-81.77 6.825 1.341 12.542 2.677 18.81 4.45 1.3.38 1.85 1.909 1.09 3.04z" fill="#63861c" opacity="1" data-original="#63861c"></path>
        </g>
    </g>
</svg>