<svg width="48" height="48" viewBox="0 0 48 48" fill="none" xmlns="http://www.w3.org/2000/svg">
<g clip-path="url(#clip0_2_2016)">
<path d="M24 11.25C18.5719 11.25 14.1562 15.7594 14.1562 21.1875V25.4062H33.8438V21.1875C33.8438 15.7594 29.4281 11.25 24 11.25Z" fill="#7BD254"/>
<path d="M33.8438 21.1875V25.4062H24V11.25C29.4281 11.25 33.8438 15.7594 33.8438 21.1875Z" fill="#4D9C85"/>
<path d="M24 0C20.9063 0 18.375 2.53134 18.375 5.625C18.375 8.71866 20.9063 11.25 24 11.25C27.0937 11.25 29.625 8.71866 29.625 5.625C29.625 2.53134 27.0937 0 24 0Z" fill="#4D9C85"/>
<path d="M46.5465 16.9689C44.2425 16.9844 42.3147 18.9937 42.1794 21.2939C42.0945 22.7374 41.9405 24.1801 41.6943 25.5757L40.3286 26.9574L38.8386 25.5245C31.5528 26.1285 26.6133 31.6422 25.8517 38.5434C25.5563 41.2202 25.4062 43.9878 25.4062 46.5938V48H36.6562V46.5938C36.6562 45.2397 37.6615 44.2121 39.5882 42.5436C42.9006 39.6761 48 35.3407 48 24V16.9688C48 16.9688 46.5623 16.9687 46.5465 16.9689Z" fill="#7BD254"/>
<path d="M38.839 25.5245C38.2713 28.4566 36.7044 32.8837 34.5967 34.0044L35.8794 36.5079C39.0499 34.9226 41.0262 29.3454 41.6948 25.5756C40.7316 25.4651 39.7814 25.4462 38.839 25.5245V25.5245Z" fill="#4D9C85"/>
<path d="M1.4535 16.9689C3.7575 16.9844 5.68528 18.9937 5.82056 21.2939C5.9055 22.7374 6.05953 24.1801 6.30572 25.5757L7.67138 26.9574L9.16144 25.5245C16.4472 26.1285 21.3867 31.6422 22.1483 38.5434C22.4437 41.2202 22.5938 43.9878 22.5938 46.5938V48H11.3438V46.5938C11.3438 45.2397 10.3385 44.2121 8.41181 42.5436C5.09944 39.6761 0 35.3407 0 24V16.9688C0 16.9688 1.43766 16.9687 1.4535 16.9689Z" fill="#4D9C85"/>
<path d="M9.16148 25.5246C9.72913 28.4567 11.2961 32.8838 13.4038 34.0045L12.1211 36.508C8.95054 34.9227 6.9742 29.3455 6.30566 25.5757C7.26885 25.4652 8.21901 25.4463 9.16148 25.5246Z" fill="#7BD254"/>
<path d="M29.625 5.625C29.625 8.71866 27.0937 11.25 24 11.25V0C27.0937 0 29.625 2.53134 29.625 5.625Z" fill="#7BD254"/>
</g>
<defs>
<clipPath id="clip0_2_2016">
<rect width="48" height="48" fill="white"/>
</clipPath>
</defs>
</svg>
