<svg width="141" height="50" viewBox="0 0 141 50" fill="none" xmlns="http://www.w3.org/2000/svg">
<g clip-path="url(#clip0_43_1415)">
<path d="M3.85033 20.6295C3.41837 19.1482 2.69827 17.0361 3.48815 15.3861C4.43634 12.9854 7.51958 11.8515 9.85597 12.7446C12.5631 13.6384 13.2329 17.5052 11.314 19.4821C10.5737 20.2944 9.49395 20.8053 8.50637 21.1723C7.64891 21.5148 6.72647 21.7524 6.41066 22.6288C5.73708 27.0563 5.80202 36.9304 11.6165 39.6691C13.7891 40.7378 16.6298 40.2377 17.887 38.1009C18.6568 36.8872 19.0495 35.4391 19.3621 34.0446C19.7932 31.9983 20.0394 30.1743 20.3342 27.6999C20.8466 23.1228 21.2769 18.1164 21.5119 13.587C21.6193 10.9951 21.6525 10.6023 19.2146 9.77692C16.9797 8.97199 15.1745 6.56619 15.6527 4.00236C16.0526 1.09568 19.1057 -0.616497 21.7845 0.206527C23.927 0.771405 25.2774 2.78505 25.5146 4.93888C25.7048 6.41081 25.0198 8.12859 24.4103 9.15742C23.369 10.7847 23.8971 12.0645 24.3032 14.0188C24.9688 17.2595 25.5415 20.8468 25.6505 24.2195C25.8101 29.0037 24.7468 33.8194 25.0448 38.6647C25.1325 40.9252 25.4454 43.5339 25.7556 45.6012C26.0787 47.6899 24.9955 47.4827 22.7073 47.8742C18.8776 48.2725 14.9759 49.036 11.1385 48.6658C9.42993 48.4603 7.65947 48.357 6.43751 47.272C5.23371 45.9206 5.0159 43.5913 4.48532 41.7659C3.64317 38.218 3.08856 34.6363 3.19986 30.9637C3.2407 29.0102 3.41691 26.9637 3.61884 25.0449C3.74404 23.5263 4.10499 21.9065 3.85687 20.6624L3.85033 20.6295Z" fill="black"/>
<path d="M4.57842 32.1029C4.52249 31.9565 4.37544 31.8786 4.24812 31.7861C3.8707 31.5489 3.25169 30.9844 2.93443 30.242C2.13934 28.6659 2.89465 26.6347 4.53407 25.9843C5.73864 25.4363 7.01932 25.4919 8.04797 26.3704C9.64258 27.5381 10.2997 31.109 8.15676 31.8906C7.63375 32.0912 6.9939 32.1475 6.53747 32.2008C6.2107 32.2503 5.97322 32.2574 5.78028 32.4772C5.68802 32.5992 5.63998 32.7611 5.60666 32.9262C5.44987 33.7961 5.183 35.8103 5.26381 37.302C5.40362 39.4352 6.88685 45.4964 9.11446 45.4397C10.0331 45.4907 11.0012 44.6753 10.9873 43.743C10.9302 40.9656 10.829 35.9626 11.7375 32.6027C12.2839 30.2375 13.1217 26.5302 13.5853 25.2204C13.7618 24.7056 13.7592 24.5675 13.3849 24.165C13.0512 23.795 12.4917 23.0888 12.2531 22.2996C11.2056 19.132 15.2937 16.9955 17.8092 18.4863C20.2063 19.5837 20.0487 23.2631 17.816 24.3945C17.2491 24.6976 16.3864 24.8028 15.8158 24.9616C15.3885 25.0709 15.1961 25.3448 15.1622 25.7614C15.021 27.1125 14.7448 30.3218 14.9797 32.7195C15.093 34.0307 15.4507 35.1342 15.8566 36.3473C16.7931 39.0082 17.5423 42.8364 19.2028 44.0341C20.1958 44.5653 21.5664 43.87 22.5826 42.708C23.2007 41.899 23.9081 40.7875 23.7454 39.7387C23.6251 39.377 23.1597 39.2923 22.5539 39.0181C18.8408 37.2979 20.6242 32.8057 24.0221 32.2737C27.3418 31.8492 29.7336 35.5488 26.9071 38.0717C26.3606 38.5689 25.9616 38.7825 26.0064 39.3269C26.1964 40.5305 26.7979 41.7083 27.1111 42.8787C27.5602 44.4475 28.0433 48.2547 26.7172 49.17C22.5927 49.5294 8.84754 49.0012 3.96162 49.0589C3.19341 49.0338 2.54131 49.175 1.83489 48.6267C-0.343131 46.7824 1.45146 40.6333 2.07501 38.5195C2.5612 37.0149 3.49741 35.3545 4.08751 33.7609C4.24965 33.2547 4.66703 32.5026 4.58508 32.123L4.57842 32.1029Z" fill="white" stroke="black" stroke-width="1.5" stroke-linecap="round" stroke-linejoin="round"/>
</g>
<g clip-path="url(#clip1_43_1415)">
<path d="M55.3991 27.4815C55.4235 31.331 55.5499 35.1922 55.7765 39.0661H45.6963C46.1738 30.4242 46.1738 21.7326 45.6963 12.9913H55.7765C55.5499 16.8651 55.4235 20.727 55.3991 24.5758C56.5312 24.5758 57.6762 24.5635 58.8346 24.5385C58.809 20.7146 58.696 16.8651 58.4945 12.9913H68.5747C68.0465 21.7326 68.0465 30.4242 68.5747 39.0661H58.4945C58.696 35.2172 58.809 31.3554 58.8346 27.4815C57.7019 27.4568 56.5562 27.4568 55.3991 27.4815Z" fill="black"/>
<path d="M88.3954 12.9913C89.7541 21.6332 91.6166 30.3251 93.9829 39.0661H83.9028C83.7763 37.4522 83.6127 35.8254 83.4118 34.1863C82.254 34.1619 81.0955 34.1619 79.9383 34.1863C79.7368 35.8254 79.5731 37.4522 79.4474 39.0661H69.3672C71.7078 30.3494 73.5704 21.6582 74.9547 12.9913H88.3954ZM80.3157 31.2436C81.2219 31.2686 82.1282 31.2686 83.0344 31.2436C82.8078 29.7292 82.3547 26.8853 81.6751 22.7135C80.9954 26.8609 80.5423 29.7042 80.3157 31.2436Z" fill="black"/>
<path d="M115.502 14.8163L112.746 23.9426C111.764 23.0988 110.336 22.3471 108.461 21.6889C106.586 21.0313 105.044 20.752 103.836 20.8508C103.207 20.9008 102.841 21.1487 102.741 21.5958C102.64 22.0929 102.917 22.4152 103.572 22.5643C103.748 22.6144 103.949 22.6387 104.176 22.6387C105.082 22.6387 106.02 22.7075 106.989 22.8436C107.957 22.9804 109.014 23.26 110.16 23.6817C111.305 24.1044 112.305 24.6319 113.161 25.2651C114.016 25.8984 114.709 26.7678 115.238 27.8725C115.766 28.9778 115.98 30.2377 115.88 31.6533C115.779 32.6962 115.571 33.6404 115.256 34.4842C114.941 35.329 114.57 36.0303 114.143 36.5888C113.715 37.1476 113.186 37.6321 112.557 38.0418C111.928 38.4515 111.323 38.7681 110.745 38.9916C110.166 39.2152 109.499 39.395 108.744 39.5318C107.989 39.668 107.34 39.7487 106.8 39.7737C106.258 39.7984 105.648 39.8234 104.969 39.8484C103.483 39.8728 102.131 39.755 100.91 39.4944C99.6888 39.2335 98.6889 38.8675 97.9091 38.3954C97.1286 37.924 96.449 37.3775 95.8701 36.7566C95.2911 36.136 94.8695 35.4778 94.6051 34.7825C94.3413 34.0875 94.1584 33.3795 94.0582 32.6592C93.9568 31.9392 93.9504 31.2379 94.039 30.5543C94.1269 29.8717 94.2591 29.2384 94.4356 28.6546C94.6115 28.0717 94.838 27.5746 95.1153 27.1649C95.3919 26.7548 95.6814 26.4632 95.9837 26.2894C96.3854 27.308 97.1659 28.1768 98.3243 28.8968C99.4815 29.6174 100.709 30.1139 102.005 30.3868C103.301 30.6604 104.465 30.7221 105.497 30.573C106 30.4986 106.365 30.3251 106.592 30.0515C106.819 29.7786 106.837 29.518 106.649 29.2694C106.46 29.0215 106.076 28.8968 105.497 28.8968C105.12 28.8968 104.685 28.8781 104.195 28.8411C103.704 28.8037 103.081 28.7106 102.326 28.5615C101.571 28.4127 100.841 28.2141 100.136 27.9656C99.4314 27.7177 98.7203 27.376 98.0034 26.9413C97.2859 26.5069 96.6691 25.9978 96.1531 25.4139C95.6371 24.8307 95.234 24.0981 94.9452 23.2163C94.6558 22.3351 94.5486 21.3723 94.6243 20.3293C94.8252 17.6975 95.7879 15.7044 97.5124 14.3509C99.2363 12.9976 101.822 12.2833 105.271 12.2089C108.417 12.1595 111.827 13.0283 115.502 14.8163Z" fill="black"/>
<path d="M126.903 27.4815C126.927 31.331 127.054 35.1922 127.28 39.0661H117.2C117.678 30.4242 117.678 21.7326 117.2 12.9913H127.28C127.054 16.8651 126.927 20.727 126.903 24.5758C128.035 24.5758 129.18 24.5635 130.339 24.5385C130.313 20.7146 130.2 16.8651 129.998 12.9913H140.079C139.55 21.7326 139.55 30.4242 140.079 39.0661H129.998C130.2 35.2172 130.313 31.3554 130.339 27.4815C129.206 27.4568 128.06 27.4568 126.903 27.4815Z" fill="black"/>
<path d="M53.8473 25.7746C53.8717 29.6241 53.9981 33.4853 54.2247 37.3591H44.1445C44.622 28.7173 44.622 20.0257 44.1445 11.2844H54.2247C53.9981 15.1582 53.8717 19.0201 53.8473 22.8689C54.9795 22.8689 56.1244 22.8566 57.2829 22.8316C57.2572 19.0077 57.1443 15.1582 56.9427 11.2844H67.0229C66.4947 20.0257 66.4947 28.7173 67.0229 37.3591H56.9427C57.1443 33.5103 57.2572 29.6484 57.2829 25.7746C56.1501 25.7499 55.0045 25.7499 53.8473 25.7746Z" fill="white" stroke="black" stroke-width="2" stroke-miterlimit="10"/>
<path d="M86.8436 11.2844C88.2023 19.9262 90.0648 28.6182 92.4312 37.3591H82.351C82.2246 35.7453 82.0609 34.1185 81.86 32.4794C80.7022 32.455 79.5437 32.455 78.3866 32.4794C78.185 34.1185 78.0214 35.7453 77.8956 37.3591H67.8154C70.1561 28.6425 72.0186 19.9513 73.403 11.2844H86.8436ZM78.764 29.5367C79.6702 29.5617 80.5764 29.5617 81.4826 29.5367C81.2561 28.0223 80.803 25.1784 80.1233 21.0066C79.4436 25.154 78.9905 27.9973 78.764 29.5367Z" fill="white" stroke="black" stroke-width="2" stroke-miterlimit="10"/>
<path d="M113.95 13.1094L111.194 22.2357C110.213 21.3919 108.784 20.6402 106.909 19.982C105.034 19.3243 103.492 19.0451 102.284 19.1439C101.655 19.1939 101.29 19.4418 101.189 19.8889C101.089 20.386 101.365 20.7083 102.02 20.8574C102.196 20.9075 102.397 20.9318 102.624 20.9318C103.53 20.9318 104.468 21.0005 105.437 21.1367C106.405 21.2735 107.462 21.5531 108.608 21.9748C109.753 22.3975 110.754 22.925 111.609 23.5582C112.465 24.1915 113.157 25.0609 113.686 26.1656C114.214 27.2709 114.428 28.5308 114.328 29.9464C114.227 30.9893 114.019 31.9335 113.705 32.7773C113.389 33.6221 113.019 34.3234 112.591 34.8819C112.163 35.4407 111.634 35.9252 111.005 36.3349C110.376 36.7446 109.772 37.0612 109.193 37.2847C108.614 37.5083 107.947 37.6881 107.192 37.8249C106.437 37.961 105.789 38.0418 105.248 38.0668C104.707 38.0915 104.096 38.1165 103.417 38.1415C101.931 38.1659 100.579 38.0481 99.3584 37.7875C98.137 37.5266 97.1371 37.1606 96.3573 36.6885C95.5769 36.2171 94.8972 35.6706 94.3183 35.0497C93.7394 34.4291 93.3177 33.7709 93.0533 33.0756C92.7895 32.3806 92.6066 31.6726 92.5065 30.9523C92.4051 30.2323 92.3987 29.531 92.4872 28.8474C92.5752 28.1648 92.7074 27.5315 92.8839 26.9477C93.0597 26.3648 93.2863 25.8677 93.5635 25.458C93.8402 25.0479 94.1296 24.7563 94.4319 24.5825C94.8337 25.6011 95.6141 26.4699 96.7726 27.1899C97.9297 27.9105 99.1569 28.407 100.453 28.6799C101.749 28.9535 102.913 29.0152 103.945 28.8661C104.449 28.7917 104.814 28.6182 105.04 28.3446C105.267 28.0717 105.285 27.8111 105.097 27.5625C104.908 27.3146 104.524 27.1899 103.945 27.1899C103.568 27.1899 103.133 27.1712 102.643 27.1341C102.152 27.0968 101.529 27.0037 100.774 26.8546C100.019 26.7058 99.2891 26.5072 98.5844 26.2587C97.8797 26.0108 97.1685 25.6691 96.4517 25.2344C95.7341 24.8 95.1173 24.2909 94.6013 23.707C94.0853 23.1238 93.6823 22.3912 93.3935 21.5094C93.104 20.6282 92.9968 19.6654 93.0726 18.6224C93.2734 15.9906 94.2361 13.9975 95.9607 12.6439C97.6846 11.2907 100.27 10.5764 103.719 10.502C106.865 10.4526 110.275 11.3214 113.95 13.1094Z" fill="white" stroke="black" stroke-width="2" stroke-miterlimit="10"/>
<path d="M125.351 25.7746C125.376 29.6241 125.502 33.4853 125.729 37.3591H115.648C116.126 28.7173 116.126 20.0257 115.648 11.2844H125.729C125.502 15.1582 125.376 19.0201 125.351 22.8689C126.483 22.8689 127.628 22.8566 128.787 22.8316C128.761 19.0077 128.648 15.1582 128.447 11.2844H138.527C137.999 20.0257 137.999 28.7173 138.527 37.3591H128.447C128.648 33.5103 128.761 29.6484 128.787 25.7746C127.654 25.7499 126.508 25.7499 125.351 25.7746Z" fill="white" stroke="black" stroke-width="2" stroke-miterlimit="10"/>
</g>
<defs>
<clipPath id="clip0_43_1415">
<rect width="29" height="50" fill="white"/>
</clipPath>
<clipPath id="clip1_43_1415">
<rect width="98" height="31" fill="white" transform="translate(42.1445 9.5)"/>
</clipPath>
</defs>
</svg>
