<svg xmlns="http://www.w3.org/2000/svg" version="1.1" xmlns:xlink="http://www.w3.org/1999/xlink" width="512" height="512" x="0" y="0" viewBox="0 0 64 64" style="enable-background:new 0 0 512 512" xml:space="preserve">
    <g>
    <linearGradient id="a" x1="5.77" x2="58.194" y1="32" y2="32" gradientUnits="userSpaceOnUse">
        <stop offset="0" stop-color="#63861c"></stop>
        <stop offset="1" stop-color="#99cc33"></stop>
    </linearGradient>
    <path fill="url(#a)" d="M45.88 35.07H6.77a.997.997 0 0 0-1 1V52a8.004 8.004 0 0 0 8 8h25.11a8.01 8.01 0 0 0 8-8V36.07a1.003 1.003 0 0 0-1-1zm-5.44 17.1a.997.997 0 0 1-1 1H13.2a1.003 1.003 0 0 1-1-1V42.9a1.003 1.003 0 0 1 1-1h26.24a.997.997 0 0 1 1 1zM14.2 43.9h24.24v7.27H14.2zM8.35 33.57v-4.32a1.003 1.003 0 0 1 1-1h33.94a.997.997 0 0 1 1 1v4.32zm45.82-21.48-14.07.04c.487-2.243 2.382-3.867 4.13-5.2a2.484 2.484 0 0 0 .7-2.93h9.23a4.045 4.045 0 0 1 .01 8.09zM12.2 14.47V9.33A5.356 5.356 0 0 1 17.57 4h25.11a1.005 1.005 0 0 1 .6 1.77s-4.237 3.783-4.73 6.37c-.423 1.34-.143 8.756-.22 10.28-.117 4.567-6.846 4.556-6.96 0v-9.18a1.475 1.475 0 0 0-2.95 0v4.87a3.7 3.7 0 0 1-7.4 0v-3.64a1.205 1.205 0 0 0-2.4 0 3.136 3.136 0 0 1-3.3 3.11 3.122 3.122 0 0 1-3.12-3.11z" opacity="1" data-original="url(#a)"></path>
    </g>
</svg>