<?xml version="1.0" encoding="UTF-8"?>
<svg id="Layer_1" data-name="Layer 1" xmlns="http://www.w3.org/2000/svg" xmlns:xlink="http://www.w3.org/1999/xlink" viewBox="0 0 419.52 448">
  <defs>
    <style>
      .cls-1 {
        fill: url(#linear-gradient-2);
      }

      .cls-2 {
        fill: url(#linear-gradient);
      }
    </style>
    <linearGradient id="linear-gradient" x1="-57.04" y1="543.63" x2="-57.04" y2="599.63" gradientTransform="translate(666.12 4797) scale(8 -8)" gradientUnits="userSpaceOnUse">
      <stop offset="0" stop-color="#63861c"/>
      <stop offset="1" stop-color="#9c3"/>
    </linearGradient>
    <linearGradient id="linear-gradient-2" x1="-61.39" y1="577.78" x2="-61.39" y2="599.63" gradientTransform="translate(666.12 4797) scale(8 -8)" gradientUnits="userSpaceOnUse">
      <stop offset="0" stop-color="#b6922b"/>
      <stop offset="1" stop-color="#f1bf3c"/>
    </linearGradient>
  </defs>
  <path class="cls-2" d="M320.88,248.56H8C3.6,248.55.01,252.11,0,256.51c0,.02,0,.03,0,.05v127.44c.02,35.34,28.66,63.98,64,64h200.88c35.33-.04,63.96-28.67,64-64v-127.44c-.01-4.41-3.59-7.99-8-8ZM277.36,385.36c.01,4.4-3.55,7.99-7.95,8-.02,0-.03,0-.05,0H59.44c-4.41-.01-7.99-3.59-8-8v-74.16c.01-4.41,3.59-7.99,8-8h209.92c4.4-.01,7.99,3.55,8,7.95,0,.02,0,.03,0,.05v74.16ZM67.44,319.2h193.92v58.16H67.44v-58.16ZM20.64,236.56v-34.56c.01-4.41,3.59-7.99,8-8h271.52c4.4-.01,7.99,3.55,8,7.95,0,.02,0,.03,0,.05v34.56H20.64ZM387.2,64.72l-112.56.32c3.9-17.94,19.06-30.94,33.04-41.6C314.61,17.78,316.9,8.18,313.28,0h73.84c17.87-.02,32.38,14.45,32.4,32.32s-14.45,32.38-32.32,32.4Z"/>
  <path class="cls-1" d="M49.28,83.76v-41.12C49.39,19.01,68.61-.06,92.24,0h200.88c4.43.22,7.85,4,7.63,8.43-.11,2.22-1.13,4.29-2.83,5.73,0,0-33.9,30.26-37.84,50.96-3.38,10.72-1.14,70.05-1.76,82.24-.94,36.54-54.77,36.45-55.68,0v-73.44c0-6.52-5.28-11.8-11.8-11.8s-11.8,5.28-11.8,11.8h0v38.96c0,16.35-13.26,29.6-29.61,29.59-16.34,0-29.58-13.25-29.59-29.59v-29.12c-.48-5.3-5.18-9.21-10.48-8.72-4.63.42-8.3,4.09-8.72,8.72-.1,13.86-11.41,25.01-25.26,24.91-.38,0-.76-.01-1.14-.03-13.75,0-24.91-11.13-24.96-24.88h0Z"/>
</svg>