<svg xmlns="http://www.w3.org/2000/svg" version="1.1" xmlns:xlink="http://www.w3.org/1999/xlink" width="512" height="512" x="0" y="0" viewBox="0 0 512 512" style="enable-background:new 0 0 512 512" xml:space="preserve" class="">
<g>
    <linearGradient id="a" x1="1" x2="512" y1="32" y2="32" gradientUnits="userSpaceOnUse">
        <stop offset="0" stop-color="#99cc33"></stop>
        <stop offset="1" stop-color="#63861c"></stop>
    </linearGradient>

    <path fill="#fdfcd3" d="m141.998 142.048 9.337-69.479s-6.184-11.883-12.395-16.287a34.74 34.74 0 0 0-11.81-2.058c-19.228 0-34.816 15.587-34.816 34.816 0 6.86 1.992 13.25 5.417 18.64a41.326 41.326 0 0 0-14.496-2.613c-22.881 0-41.429 18.548-41.429 41.429 0 4.379.628 8.288 1.611 11.733z" opacity="1" data-original="#d3effd" class=""></path>

    <path fill="#fbeab2" d="M161.945 89.041c0-15.082-9.591-27.92-23.006-32.758a33.333 33.333 0 0 1 4.865 17.361c0 7.728-2.635 14.852-7.071 20.566-1.822 2.347-2.084 5.515-.782 8.186a31.143 31.143 0 0 1 3.155 13.687c0 17.603-10.157 30.762-31.126 26.136-25.908-6.066-50.628-11.489-64.563 16.011a40.295 40.295 0 0 0 7.818 14.788c1.755 2.095 5.09 1.57 6.122-.961 12.891-31.608 37.145-8.426 64.903-7.106 18.863.897 35.146-13.924 34.986-32.808a32.421 32.421 0 0 0-5.77-18.226c6.457-6.319 10.469-15.127 10.469-24.876z" opacity="1" data-original="#b2e5fb" class=""></path>

    <path fill="url(#a)" d="m200.533 278.534 19.672 6.774-14.128 41.031-32.516.654z" opacity="1" data-original="url(#a)" class=""></path>

    <path fill="url(#a)" d="m160.021 332.281 20.839-60.521 19.673 6.774-14.128 41.031 19.672 6.774-6.711 19.49z" opacity="1" data-original="url(#a)" class=""></path>

    <path fill="url(#a)" d="m218.188 274.746-22.72 65.983 187.279 77.439 99.833 21.422 14.116-77.121-239.447-82.449-9.847 4.854-4.771-9.887-14.618-5.033a7.73 7.73 0 0 0-9.825 4.792z" opacity="1" data-original="url(#a)"></path>

    <path fill="url(#a)" d="m456.842 430.727-261.374-89.999-4.194 12.181a7.73 7.73 0 0 0 4.792 9.825l14.618 5.033 9.637-4.246 4.98 9.279 244.32 84.126c8.073 2.78 16.871-1.511 19.651-9.584l21.881-63.546c2.78-8.073-1.511-16.871-9.584-19.651l-4.873-1.678-20.203 58.674c-2.779 8.075-11.577 12.366-19.651 9.586z" opacity="1" data-original="url(#a)" class=""></path>

    <path fill="url(#a)" d="m210.684 367.769 14.618 5.033 6.711-19.49-5.793-9.046-8.825 4.013z" opacity="1" data-original="url(#a)" class=""></path>

    <path fill="url(#a)" d="m217.628 348.315 25.27-73.33 14.625 5.04-25.27 73.33z" opacity="1" data-original="url(#a)" class=""></path>

    <path fill="url(#a)" d="M294.748 334.257c.508-1.476-1.1-4.162-2.661-5.996a15.45 15.45 0 0 0-4.025-2.091c-8.073-2.78-16.871 1.511-19.651 9.584a15.434 15.434 0 0 0-.83 4.459c.835 2.641 2.765 5.23 4.241 5.738 8.072 2.78 20.146-3.621 22.926-11.694z" opacity="1" data-original="url(#a)"></path>

    <path fill="url(#a)" d="M292.087 328.261a15.468 15.468 0 0 1-.83 4.459c-2.78 8.073-11.578 12.364-19.651 9.584a15.45 15.45 0 0 1-4.025-2.091c-.249 6.629 3.818 12.92 10.415 15.192 8.073 2.78 16.871-1.511 19.651-9.584 2.27-6.597-.183-13.674-5.56-17.56z" opacity="1" data-original="url(#a)"></path>

    <path fill="url(#a)" d="m24.333 220.538 49.862 17.29-3.702 55.535-65.881-39.294 9.895-28.738a7.731 7.731 0 0 1 9.826-4.793z" opacity="1" data-original="url(#a)"></path>
    
    <path fill="url(#a)" d="M55.077 293.35 5.215 276.06a7.73 7.73 0 0 1-4.792-9.825l4.189-12.165 67.3 23.258z" opacity="1" data-original="url(#a)" class=""></path>

    <path fill="#fdfcd3" d="m162.234 247.304-20.786 90.084-71.676-25.358 40.073-82.765z" opacity="1" data-original="#d3effd" class=""></path>
    
    <path fill="#fbeab2" d="m71.577 306.79 71.269 24.539-12.559 8.757-52.389-18.039zM121.291 259.339l37.242 12.823-9.147 26.566-51.782-7.379z" opacity="1" data-original="#b2e5fb" class=""></path>

    <path fill="#f1bf3c" d="m81.599 297.188 15.858-46.056 23.834 8.207-9.147 26.566 37.242 12.823-6.711 19.491z" opacity="1" data-original="#94d8e6" class=""></path>

    <path fill="url(#a)" d="m87.919 221.715 21.926 7.55-27.921 81.088-16.422.208-12.813-10.274 25.404-73.779a7.73 7.73 0 0 1 9.826-4.793z" opacity="1" data-original="url(#a)"></path>

    <path fill="url(#a)" d="m77.898 322.047-21.926-7.55a7.73 7.73 0 0 1-4.792-9.825l1.51-4.385 29.235 10.066z" opacity="1" data-original="url(#a)" class=""></path>

    <path fill="url(#a)" d="m140.828 339.19-6.514-10.798 27.92-81.088 13.643 4.698-13.425 75.782z" opacity="1" data-original="url(#a)"></path>

    <path fill="url(#a)" d="M144.546 331.915a3.607 3.607 0 0 0 4.585-2.236l26.746-77.677 8.283 2.852a7.73 7.73 0 0 1 4.792 9.825l-26.914 78.164a7.73 7.73 0 0 1-9.825 4.792l-21.926-7.55 4.027-11.694z" opacity="1" data-original="url(#a)" class=""></path>
</g>
</svg>