<?xml version="1.0" encoding="UTF-8"?>
<svg id="Layer_1" data-name="Layer 1" xmlns="http://www.w3.org/2000/svg" xmlns:xlink="http://www.w3.org/1999/xlink" viewBox="0 0 380.79 443.99">
  <defs>
    <style>
      .cls-1 {
        fill: url(#Gradients_2);
      }

      .cls-2 {
        fill: url(#Gradients_1);
      }

      .cls-3 {
        fill: #85b234;
      }

      .cls-4 {
        fill: #fbeab2;
      }

      .cls-5 {
        fill: #b7d66b;
      }

      .cls-6 {
        fill: #fdfcd3;
      }

      .cls-7 {
        fill: #9c3;
      }

      .cls-8 {
        fill: url(#linear-gradient);
      }

      .cls-9 {
        fill: #5f6c75;
      }
    </style>
    <linearGradient id="linear-gradient" x1="259.07" y1="414.99" x2="259.07" y2="176.27" gradientUnits="userSpaceOnUse">
      <stop offset="0" stop-color="#9c3"/>
      <stop offset="1" stop-color="#b7d66b"/>
    </linearGradient>
    <linearGradient id="Gradients_2" data-name="Gradients 2" x1="259.34" y1="443.99" x2="259.34" y2="225.08" gradientUnits="userSpaceOnUse">
      <stop offset="0" stop-color="#63861c"/>
      <stop offset="1" stop-color="#9c3"/>
    </linearGradient>
    <linearGradient id="Gradients_1" data-name="Gradients 1" x1="94.84" y1="144.65" x2="94.84" y2="70.92" gradientUnits="userSpaceOnUse">
      <stop offset="0" stop-color="#b6922b"/>
      <stop offset="1" stop-color="#f1bf3c"/>
    </linearGradient>
  </defs>
  <rect class="cls-7" x="132.86" y="156.92" width="43.4" height="15.45" transform="translate(-69.29 134.82) rotate(-39.22)"/>
  <polygon class="cls-3" points="132.86 172.38 142.63 184.35 141.12 185.59 129.42 195.14 126.66 197.39 107.11 173.43 156.7 132.96 166.48 144.94 132.86 172.38"/>
  <path class="cls-5" d="M204.13,164.09l-.04.36-59.7,48.7-.3-.04h-.01l-11.28-13.83-3.38-4.14,11.7-9.55,1.51-1.24,33.62-27.44,7.23-5.9c3.31-2.7,8.18-2.2,10.87,1.1l9.78,11.98Z"/>
  <path class="cls-8" d="M374.04,372.26l-48.08,39.24c-6.61,5.4-16.35,4.41-21.75-2.2l-150.35-184.22-9.77-11.97.3.04-.13.11,9.6,11.77.18.22,60.04-48.98,159.96,195.99Z"/>
  <path class="cls-7" d="M144.08,213.11l-1.08.88-14.89,12.15-9.77-11.98c-2.7-3.31-2.21-8.18,1.1-10.88l7.22-5.89,2.76-2.25,3.38,4.14,11.28,13.83Z"/>
  <path class="cls-1" d="M375.1,398l-52.07,42.5c-6.62,5.4-16.36,4.41-21.75-2.2l-163.39-200.18,14.16-11.56,1.81-1.48,150.35,184.22c5.4,6.61,15.14,7.6,21.75,2.2l48.08-39.24,3.26,3.99c5.4,6.61,4.41,16.35-2.2,21.75Z"/>
  <polygon class="cls-3" points="153.86 225.08 152.05 226.56 137.89 238.12 137.89 238.11 128.11 226.14 143 213.99 144.08 213.11 144.09 213.11 153.86 225.08"/>
  <polygon class="cls-9" points="153.86 225.03 153.86 225.08 144.09 213.11 144.39 213.15 144.26 213.26 153.86 225.03"/>
  <polygon class="cls-7" points="214.14 176.22 214.08 176.27 154.04 225.25 153.86 225.03 144.26 213.26 144.39 213.15 204.09 164.45 204.36 164.23 214.14 176.22"/>
  <path class="cls-7" d="M80.51,43.8h-.01s-29.48,24.08-29.48,24.08L12.81,20.96,36.36,1.74c3.3-2.7,8.17-2.21,10.87,1.1l33.28,40.96Z"/>
  <path class="cls-3" d="M51.02,67.88l-9.76,7.96-6.23,5.09h-.01L1.74,39.97c-2.7-3.31-2.21-8.18,1.1-10.88l9.97-8.13,38.21,46.92Z"/>
  <rect class="cls-6" x="65.02" y="99.38" width="12.34" height="55.41" transform="translate(-64.31 73.62) rotate(-39.21)"/>
  <polygon class="cls-6" points="150.36 98.22 131.22 113.84 109.46 131.61 87.46 104.65 109.22 86.89 96.18 70.92 115.33 55.29 150.36 98.22"/>
  <polygon class="cls-2" points="131.22 113.84 109.46 131.61 108.77 132.17 93.49 144.65 58.45 101.72 96.18 70.92 109.22 86.89 131.22 113.84"/>
  <polygon class="cls-4" points="83.93 152.45 79.2 156.31 74.35 160.27 74.34 160.27 39.31 117.34 44.53 113.08 48.89 109.52 83.93 152.45"/>
  <path class="cls-5" d="M115.33,55.29l-19.15,15.63-37.73,30.8-9.56,7.8-6.5-7.96-.42-.52-12.63-15.47,5.68-4.64h.01l6.23-5.09,9.76-7.96,29.48-24.07h.01s9.28-7.58,9.28-7.58c3.31-2.7,8.18-2.21,10.88,1.1l14.66,17.96Z"/>
  <path class="cls-7" d="M48.89,109.52l-4.36,3.56-5.22,4.26-14.66-17.96c-2.7-3.31-2.21-8.18,1.1-10.88l3.59-2.93,12.63,15.47.42.52,6.5,7.96Z"/>
  <path class="cls-5" d="M159.49,109.4l-63.65,51.94c-1.54,1.26-3.81,1.03-5.07-.51l-1.14-1.39h0s-5.7-6.98-5.7-6.98h0s9.56-7.81,9.56-7.81l15.28-12.48.69-.56,21.76-17.77,19.14-15.62,9.13,11.18Z"/>
  <path class="cls-7" d="M163.93,127.06l-7.23,5.9-49.59,40.47-7.23,5.9c-3.3,2.7-8.17,2.21-10.87-1.1l-14.66-17.96,4.85-3.96,4.73-3.86h0s5.7,6.98,5.7,6.98h0s1.14,1.4,1.14,1.4c1.26,1.54,3.53,1.77,5.07.51l63.65-51.94,5.54,6.78c2.7,3.31,2.2,8.18-1.1,10.88Z"/>
</svg>