<svg width="472" height="373" viewBox="0 0 472 373" fill="none" xmlns="http://www.w3.org/2000/svg">
<g clip-path="url(#clip0_1_20)">
<g opacity=".3">
<path d="M-633.301 227.665C-522.037 167.168 -487.194 231.249 -375.93 170.752C-264.665 110.255 -299.508 46.1737 -188.275 -14.306C-77.0424 -74.7857 -42.1678 -10.7217 69.0968 -71.2188C180.361 -131.716 145.519 -195.797 256.783 -256.294C368.048 -316.792 402.89 -252.71 514.187 -313.225C625.484 -373.739 590.609 -437.803 701.874 -498.3" stroke="#7BD254" stroke-miterlimit="10"/>
<path d="M-772.742 -28.7914C-661.478 -89.2886 -626.635 -25.2071 -515.37 -85.7042C-404.106 -146.201 -438.948 -210.283 -327.716 -270.763C-216.483 -331.242 -181.609 -267.178 -70.3441 -327.675C40.9204 -388.172 6.0778 -452.254 117.342 -512.751C228.607 -573.248 263.45 -509.167 374.746 -569.681C486.043 -630.196 451.168 -694.26 562.433 -754.757" stroke="#7BD254" stroke-miterlimit="10"/>
<path d="M-493.86 484.123C-382.596 423.626 -347.682 487.838 -236.418 427.341C-125.153 366.844 -160.067 302.632 -48.834 242.152C62.3985 181.672 97.344 245.867 208.609 185.37C319.873 124.873 284.96 60.6608 396.224 0.163657C507.489 -60.3335 542.402 3.8783 653.699 -56.6362C764.995 -117.151 730.05 -181.345 841.315 -241.842" stroke="#7BD254" stroke-miterlimit="10"/>
<path d="M-302.084 836.831C-190.819 776.334 -155.977 840.415 -44.712 779.918C66.5526 719.421 31.71 655.339 142.943 594.86C254.175 534.38 289.05 598.444 400.314 537.947C511.579 477.45 476.736 413.368 588.001 352.871C699.265 292.374 734.108 356.456 845.405 295.941C956.701 235.426 921.827 171.362 1033.09 110.865" stroke="#7BD254" stroke-miterlimit="10"/>
<path d="M-563.545 355.959C-452.281 295.462 -417.438 359.543 -306.173 299.046C-194.909 238.549 -229.751 174.468 -118.519 113.988C-7.28629 53.5081 27.5883 117.572 138.853 57.0751C250.117 -3.42206 215.275 -67.5035 326.539 -128.001C437.804 -188.498 472.647 -124.416 583.943 -184.931C695.24 -245.445 660.365 -309.509 771.63 -370.007" stroke="#7BD254" stroke-miterlimit="10"/>
<path d="M-702.987 99.5021C-591.722 39.005 -556.879 103.086 -445.615 42.5893C-334.35 -17.9078 -369.193 -81.9893 -257.96 -142.469C-146.728 -202.949 -111.853 -138.885 -0.588523 -199.382C110.676 -259.879 75.8334 -323.96 187.098 -384.457C298.363 -444.955 333.205 -380.873 444.502 -441.388C555.798 -501.902 520.924 -565.966 632.188 -626.463" stroke="#7BD254" stroke-miterlimit="10"/>
<path d="M-424.104 612.415C-312.839 551.918 -277.997 616 -166.732 555.503C-55.4674 495.005 -90.31 430.924 20.9225 370.444C132.155 309.965 167.03 374.029 278.294 313.531C389.559 253.034 354.716 188.953 465.981 128.456C577.245 67.9587 612.088 132.04 723.385 71.5256C834.681 11.0111 799.807 -53.053 911.071 -113.55" stroke="#7BD254" stroke-miterlimit="10"/>
<path d="M-234.188 957.619C-122.364 898.161 -88.1517 962.506 23.6718 903.048C135.495 843.59 101.283 779.246 213.074 719.805C324.865 660.365 359.11 724.692 470.934 665.235C582.757 605.777 548.544 541.432 660.368 481.975C772.191 422.517 806.404 486.862 918.26 427.387C1030.12 367.912 995.871 303.585 1107.69 244.127" stroke="#7BD254" stroke-miterlimit="10"/>
<path d="M-598.458 291.747C-487.194 231.25 -452.28 295.461 -341.016 234.964C-229.751 174.467 -264.665 110.255 -153.432 49.7758C-42.1994 -10.704 -7.25394 53.4904 104.011 -7.0067C215.275 -67.5038 180.362 -131.716 291.626 -192.213C402.891 -252.71 437.804 -188.498 549.101 -249.013C660.398 -309.527 625.452 -373.721 736.717 -434.219" stroke="#7BD254" stroke-miterlimit="10"/>
<path d="M-737.9 35.2902C-626.635 -25.207 -591.722 39.0048 -480.457 -21.4923C-369.193 -81.9894 -404.106 -146.201 -292.873 -206.681C-181.641 -267.161 -146.695 -202.966 -35.4308 -263.463C75.8338 -323.96 40.9203 -388.172 152.185 -448.669C263.449 -509.166 298.363 -444.955 409.66 -505.469C520.956 -565.984 486.011 -630.178 597.275 -690.675" stroke="#7BD254" stroke-miterlimit="10"/>
<path d="M-458.947 548.333C-347.682 487.836 -312.839 551.917 -201.575 491.42C-90.3102 430.923 -125.153 366.841 -13.9202 306.362C97.3123 245.882 132.187 309.946 243.452 249.449C354.716 188.952 319.873 124.87 431.138 64.3731C542.403 3.87601 577.245 67.9575 688.542 7.44297C799.838 -53.0716 764.964 -117.136 876.228 -177.633" stroke="#7BD254" stroke-miterlimit="10"/>
<path d="M-267.241 900.912C-155.976 840.415 -121.134 904.497 -9.86898 844C101.396 783.502 66.553 719.421 177.786 658.941C289.018 598.462 323.893 662.526 435.157 602.029C546.422 541.531 511.579 477.45 622.844 416.953C734.108 356.456 768.951 420.537 880.248 360.023C991.544 299.508 956.67 235.444 1067.93 174.947" stroke="#7BD254" stroke-miterlimit="10"/>
<path d="M-528.702 420.041C-417.438 359.543 -382.595 423.625 -271.331 363.128C-160.066 302.631 -194.909 238.549 -83.6761 178.069C27.5565 117.59 62.4311 181.654 173.696 121.157C284.96 60.6596 250.118 -3.42187 361.382 -63.919C472.647 -124.416 507.489 -60.3346 618.786 -120.849C730.083 -181.364 695.208 -245.428 806.473 -305.925" stroke="#7BD254" stroke-miterlimit="10"/>
<path d="M-336.927 772.751C-225.662 712.253 -190.819 776.335 -79.5548 715.838C31.7098 655.341 -3.13277 591.259 108.1 530.78C219.332 470.3 254.207 534.364 365.472 473.867C476.736 413.37 441.893 349.288 553.158 288.791C664.423 228.294 699.265 292.375 810.562 231.861C921.858 171.346 886.984 107.282 998.248 46.7852" stroke="#7BD254" stroke-miterlimit="10"/>
<path d="M-668.144 163.583C-556.879 103.086 -522.036 167.168 -410.772 106.671C-299.507 46.1734 -334.35 -17.9081 -223.117 -78.3878C-111.885 -138.868 -77.0101 -74.8034 34.2545 -135.301C145.519 -195.798 110.676 -259.879 221.941 -320.376C333.206 -380.873 368.048 -316.792 479.345 -377.306C590.641 -437.821 555.767 -501.885 667.031 -562.382" stroke="#7BD254" stroke-miterlimit="10"/>
<path d="M-389.261 676.497C-277.997 616 -243.154 680.081 -131.89 619.584C-20.6252 559.087 -55.4677 495.006 55.7648 434.526C166.997 374.046 201.872 438.11 313.137 377.613C424.401 317.116 389.559 253.035 500.823 192.537C612.088 132.04 646.93 196.122 758.227 135.607C869.523 75.0927 834.649 11.0287 945.913 -49.4685" stroke="#7BD254" stroke-miterlimit="10"/>
<path d="M-197.486 1029.21C-86.221 968.709 -51.4101 1032.73 59.8544 972.235C171.119 911.738 136.308 847.715 247.541 787.235C358.773 726.755 393.616 790.761 504.881 730.264C616.145 669.767 581.334 605.744 692.599 545.247C803.864 484.749 838.674 548.773 949.971 488.258C1061.27 427.744 1026.42 363.738 1137.69 303.241" stroke="#7BD254" stroke-miterlimit="10"/>
<path d="M-615.88 259.705C-504.615 199.208 -469.702 263.42 -358.437 202.923C-247.173 142.426 -282.086 78.214 -170.854 17.7343C-59.621 -42.7455 -24.6756 21.4489 86.589 -39.0482C197.854 -99.5453 162.94 -163.757 274.205 -224.254C385.469 -284.751 420.383 -220.54 531.679 -281.054C642.976 -341.569 608.03 -405.763 719.295 -466.26" stroke="#7BD254" stroke-miterlimit="10"/>
<path d="M-755.321 3.24939C-644.056 -57.2477 -609.214 6.83377 -497.949 -53.6633C-386.685 -114.16 -421.527 -178.242 -310.295 -238.722C-199.062 -299.201 -164.188 -235.137 -52.923 -295.634C58.3416 -356.132 23.4989 -420.213 134.764 -480.71C246.028 -541.207 280.871 -477.126 392.167 -537.64C503.464 -598.155 468.589 -662.219 579.854 -722.716" stroke="#7BD254" stroke-miterlimit="10"/>
<path d="M-476.438 516.163C-365.174 455.666 -330.26 519.878 -218.996 459.381C-107.731 398.884 -142.645 334.672 -31.4122 274.192C79.8204 213.712 114.766 277.907 226.03 217.41C337.295 156.913 302.382 92.7008 413.646 32.2037C524.911 -28.2934 559.824 35.9183 671.121 -24.5962C782.417 -85.1107 747.472 -149.305 858.736 -209.802" stroke="#7BD254" stroke-miterlimit="10"/>
<path d="M-284.663 868.872C-173.398 808.375 -138.556 872.457 -27.2911 811.96C83.9735 751.462 49.1309 687.381 160.363 626.901C271.596 566.422 306.471 630.486 417.735 569.989C529 509.491 494.157 445.41 605.422 384.913C716.686 324.416 751.529 388.497 862.826 327.983C974.122 267.468 939.248 203.404 1050.51 142.907" stroke="#7BD254" stroke-miterlimit="10"/>
<path d="M-546.124 387.999C-434.859 327.502 -400.017 391.583 -288.752 331.086C-177.488 270.589 -212.33 206.508 -101.098 146.028C10.1348 85.5481 45.0094 149.612 156.274 89.1151C267.539 28.618 232.696 -35.4635 343.961 -95.9606C455.225 -156.458 490.068 -92.3763 601.364 -152.891C712.661 -213.405 677.786 -277.469 789.051 -337.967" stroke="#7BD254" stroke-miterlimit="10"/>
<path d="M-354.418 740.579C-243.154 680.081 -208.24 744.293 -96.9759 683.796C14.2887 623.299 -20.6247 559.087 90.6079 498.608C201.84 438.128 236.786 502.322 348.05 441.825C459.315 381.328 424.402 317.116 535.666 256.619C646.931 196.122 681.844 260.334 793.141 199.819C904.437 139.305 869.492 75.1103 980.756 14.6132" stroke="#7BD254" stroke-miterlimit="10"/>
<path d="M-685.565 131.543C-574.3 71.0461 -539.458 135.128 -428.193 74.6305C-316.929 14.1334 -351.771 -49.9481 -240.539 -110.428C-129.306 -170.908 -94.4315 -106.843 16.8331 -167.341C128.098 -227.838 93.255 -291.919 204.52 -352.416C315.784 -412.913 350.627 -348.832 461.923 -409.346C573.22 -469.861 538.345 -533.925 649.61 -594.422" stroke="#7BD254" stroke-miterlimit="10"/>
<path d="M-406.682 644.457C-295.418 583.96 -260.575 648.041 -149.311 587.544C-38.0461 527.047 -72.8886 462.966 38.3439 402.486C149.576 342.006 184.451 406.07 295.716 345.573C406.98 285.076 372.138 220.995 483.402 160.497C594.667 100 629.509 164.082 740.806 103.567C852.103 43.0527 817.228 -21.0114 928.493 -81.5085" stroke="#7BD254" stroke-miterlimit="10"/>
<path d="M-213.909 997.141C-102.644 936.644 -67.8332 1000.67 43.4313 940.17C154.696 879.673 119.885 815.65 231.118 755.17C342.35 694.69 377.193 758.696 488.458 698.199C599.722 637.702 564.911 573.679 676.176 513.182C787.44 452.684 822.251 516.708 933.548 456.193C1044.84 395.679 1010 331.673 1121.27 271.176" stroke="#7BD254" stroke-miterlimit="10"/>
<path d="M-580.966 323.917C-469.702 263.42 -434.859 327.502 -323.595 267.004C-212.33 206.507 -247.173 142.426 -135.94 81.9462C-24.7074 21.4665 10.1672 85.5305 121.432 25.0334C232.696 -35.4637 197.854 -99.5452 309.118 -160.042C420.383 -220.539 455.225 -156.458 566.522 -216.972C677.819 -277.487 642.944 -341.551 754.209 -402.048" stroke="#7BD254" stroke-miterlimit="10"/>
<path d="M-720.479 67.3311C-609.214 6.83394 -574.301 71.0457 -463.036 10.5486C-351.771 -49.9485 -386.685 -114.16 -275.452 -174.64C-164.22 -235.12 -129.274 -170.925 -18.0096 -231.422C93.2549 -291.92 58.3415 -356.131 169.606 -416.628C280.871 -477.126 315.784 -412.914 427.081 -473.428C538.377 -533.943 503.432 -598.137 614.696 -658.634" stroke="#7BD254" stroke-miterlimit="10"/>
<path d="M-441.525 580.374C-330.261 519.877 -295.418 583.959 -184.153 523.462C-72.8888 462.964 -107.731 398.883 3.50116 338.403C114.734 277.923 149.608 341.988 260.873 281.49C372.137 220.993 337.295 156.912 448.559 96.4148C559.824 35.9176 594.667 99.9991 705.963 39.4846C817.26 -21.0299 782.385 -85.094 893.65 -145.591" stroke="#7BD254" stroke-miterlimit="10"/>
<path d="M-249.82 932.954C-138.555 872.457 -103.642 936.669 7.62275 876.172C118.887 815.674 83.9739 751.463 195.206 690.983C306.439 630.503 341.384 694.698 452.649 634.2C563.914 573.703 529 509.492 640.265 448.994C751.529 388.497 786.443 452.709 897.739 392.195C1009.04 331.68 974.091 267.486 1085.36 206.989" stroke="#7BD254" stroke-miterlimit="10"/>
<path d="M-790.164 -60.8323C-678.899 -121.329 -644.056 -57.2479 -532.792 -117.745C-421.527 -178.242 -456.37 -242.324 -345.137 -302.803C-233.905 -363.283 -199.03 -299.219 -87.7655 -359.716C23.4991 -420.213 -11.3436 -484.295 99.921 -544.792C211.186 -605.289 246.028 -541.207 357.325 -601.722C468.621 -662.236 433.747 -726.301 545.011 -786.798" stroke="#7BD254" stroke-miterlimit="10"/>
<path d="M-511.281 452.082C-400.017 391.584 -365.174 455.666 -253.91 395.169C-142.645 334.672 -177.488 270.59 -66.2552 210.11C44.9774 149.631 79.852 213.695 191.117 153.198C302.381 92.7006 267.538 28.6191 378.803 -31.878C490.068 -92.3751 524.91 -28.2936 636.207 -88.8081C747.503 -149.323 712.629 -213.387 823.893 -273.884" stroke="#7BD254" stroke-miterlimit="10"/>
<path d="M-319.506 804.791C-208.241 744.294 -173.398 808.375 -62.1339 747.878C49.1307 687.381 14.2881 623.299 125.521 562.82C236.753 502.34 271.628 566.404 382.892 505.907C494.157 445.41 459.314 381.328 570.579 320.831C681.844 260.334 716.686 324.415 827.983 263.901C939.279 203.386 904.405 139.322 1015.67 78.8252" stroke="#7BD254" stroke-miterlimit="10"/>
<path d="M-650.723 195.625C-539.458 135.128 -504.615 199.209 -393.351 138.712C-282.086 78.2148 -316.929 14.1333 -205.696 -46.3464C-94.4638 -106.826 -59.5892 -42.7621 51.6754 -103.259C162.94 -163.756 128.097 -227.838 239.362 -288.335C350.626 -348.832 385.469 -284.751 496.766 -345.265C608.062 -405.78 573.188 -469.844 684.452 -530.341" stroke="#7BD254" stroke-miterlimit="10"/>
<path d="M-371.84 708.539C-260.575 648.041 -225.662 712.253 -114.397 651.756C-3.13269 591.259 -38.0461 527.047 73.1865 466.568C184.419 406.088 219.364 470.282 330.629 409.785C441.894 349.288 406.98 285.076 518.245 224.579C629.509 164.082 664.423 228.294 775.719 167.779C887.016 107.265 852.071 43.0703 963.335 -17.4268" stroke="#7BD254" stroke-miterlimit="10"/>
<path d="M-180.064 1061.25C-68.7994 1000.75 -33.9885 1064.77 77.2761 1004.28C188.541 943.778 153.73 879.755 264.962 819.275C376.195 758.795 411.038 822.801 522.302 762.304C633.567 701.807 598.756 637.784 710.021 577.287C821.285 516.789 856.096 580.813 967.393 520.298C1078.69 459.784 1043.85 395.778 1155.11 335.281" stroke="#7BD254" stroke-miterlimit="10"/>
</g>
</g>
<defs>
<clipPath id="clip0_1_20">
<rect width="692" height="933" transform="translate(-220 -560)"/>
</clipPath>
</defs>
</svg>
